<?xml version="1.0" encoding="utf-8"?>
<!-- Generator: Adobe Illustrator 20.1.0, SVG Export Plug-In . SVG Version: 6.00 Build 0)  -->
<svg version="1.1" id="Layer_1" xmlns="http://www.w3.org/2000/svg" xmlns:xlink="http://www.w3.org/1999/xlink" x="0px" y="0px"
	 viewBox="0 0 12 12" style="enable-background:new 0 0 12 12;" xml:space="preserve">
<style type="text/css">
	.st0{fill:#858585;}
</style>
<circle class="st0" cx="6" cy="6" r="2"/>
<path class="st0" d="M11.5,5.4C11.4,5.2,8.6,2.3,6,2.3s-5.4,3-5.5,3.1C0.3,5.6,0.2,5.8,0.2,6v0c0,0.2,0.1,0.4,0.2,0.6
	C0.6,6.8,3.4,9.8,6,9.8s5.4-3,5.5-3.1c0.2-0.2,0.2-0.4,0.2-0.6v0C11.7,5.8,11.7,5.6,11.5,5.4z M10.8,6C10.6,6.2,8.1,8.9,6,8.9
	S1.3,6.2,1.1,6l0,0C1.3,5.8,3.8,3.1,6,3.1S10.6,5.8,10.8,6L10.8,6z"/>
</svg>
