<?xml version="1.0" encoding="utf-8"?>
<!-- Generator: Adobe Illustrator 20.1.0, SVG Export Plug-In . SVG Version: 6.00 Build 0)  -->
<svg version="1.1" id="Layer_1" xmlns="http://www.w3.org/2000/svg" xmlns:xlink="http://www.w3.org/1999/xlink" x="0px" y="0px"
	 viewBox="0 0 18 18" style="enable-background:new 0 0 18 18;" xml:space="preserve">
<style type="text/css">
	.st0{fill:#858585;}
	.st1{fill-rule:evenodd;clip-rule:evenodd;fill:#858585;}
</style>
<path class="st0" d="M11.9,7.9c-1.2,0-1.5-0.8-1.8-2.4C10,4.4,9.8,2.5,8,2.5H4.6c-1.8,0-2,1.9-2.1,2.9C2.2,7.1,1.9,7.9,0.7,7.9v1.9
	h11.2h5.4V7.9H11.9z"/>
<path class="st0" d="M16,5.7c-0.1-1-0.3-2.9-2.1-2.9c0,0-3.8,0-3.9,0c-0.1,0-0.1,0.2-0.1,0.2c1.1,0.5,1.3,1.9,1.4,2.7
	c0.1,1.1,0.3,1.5,0.8,1.5c0.1,0,4.1,0,4.1,0s0.1,0,0.1-0.1C16.2,6.6,16.1,6.2,16,5.7z"/>
<path class="st1" d="M8,12.1H3.7v-1.2c0-0.3-0.2-0.4-0.5-0.2l-2.2,1.9c-0.3,0.2-0.3,0.6,0,0.9l2.2,1.9c0.3,0.2,0.5,0.2,0.5-0.2v-1.2
	H8V12.1z"/>
<path class="st1" d="M17.1,12.6l-2.2-1.9c-0.3-0.2-0.5-0.2-0.5,0.2v1.2H10v1.9h4.3v1.2c0,0.3,0.2,0.4,0.5,0.2l2.2-1.9
	C17.4,13.2,17.4,12.8,17.1,12.6z"/>
</svg>
