<?xml version="1.0" encoding="utf-8"?>
<!-- Generator: Adobe Illustrator 20.1.0, SVG Export Plug-In . SVG Version: 6.00 Build 0)  -->
<svg version="1.1" id="Layer_1" xmlns="http://www.w3.org/2000/svg" xmlns:xlink="http://www.w3.org/1999/xlink" x="0px" y="0px"
	 viewBox="0 0 12 12" style="enable-background:new 0 0 12 12;" xml:space="preserve">
<style type="text/css">
	.st0{fill:#858585;}
</style>
<polygon class="st0" points="10.3,0.5 8.9,2 2,8.9 0.5,10.3 1.3,11.1 11.1,1.3 "/>
<g>
	<path class="st0" d="M4.8,7.5l2.8-2.8C7.2,4.3,6.7,4,6.1,4c-1.1,0-2,0.9-2,2C4.1,6.6,4.4,7.1,4.8,7.5z"/>
	<path class="st0" d="M5.9,7.9c0,0,0.1,0,0.2,0c1.1,0,2-0.9,2-2c0,0,0-0.1,0-0.2L5.9,7.9z"/>
</g>
<g>
	<path class="st0" d="M4.1,8.2C2.6,7.4,1.3,6.1,1.2,6C1.3,5.8,3.8,3.1,6,3.1c0.8,0,1.6,0.4,2.4,0.8L9,3.3C8.1,2.7,7,2.2,6,2.2
		c-2.6,0-5.4,2.9-5.5,3.1C0.3,5.6,0.2,5.7,0.2,6v0c0,0.2,0.1,0.4,0.2,0.6c0.1,0.1,1.3,1.4,2.9,2.3L4.1,8.2z"/>
	<path class="st0" d="M9.9,3.9L9.2,4.5c0.9,0.7,1.5,1.3,1.6,1.4C10.6,6.2,8.1,8.8,6,8.8c-0.3,0-0.6,0-0.9-0.1L4.4,9.4
		C4.9,9.6,5.5,9.7,6,9.7c2.6,0,5.4-2.9,5.5-3.1c0.2-0.2,0.2-0.4,0.2-0.6v0c0-0.2,0-0.4-0.2-0.6C11.4,5.3,10.8,4.6,9.9,3.9z"/>
</g>
</svg>
