<?xml version="1.0" encoding="UTF-8"?>
<!-- This Source Code Form is subject to the terms of the Mozilla Public
   - License, v. 2.0. If a copy of the MPL was not distributed with this
   - file, You can obtain one at http://mozilla.org/MPL/2.0/. -->
<svg xmlns="http://www.w3.org/2000/svg" xmlns:xlink="http://www.w3.org/1999/xlink" width="32" height="32" viewBox="0 0 32 32" style="enable-background:new 0 0 32 32;">
  <style>
    path, circle, g {
      fill: menutext;
    }
    path:not(:target),
    circle:not(:target),
    g:not(:target) {
      display: none;
    }
  </style>
  <path id="dollar" d="M16.2,0c-8.9,0-16,7.3-16,16c0,8.9,7.1,16,15.8,16s15.8-7.1,15.8-16C32,7.3,24.9,0,16.2,0z M17.1,25.1v1.6
  c0,0.4-0.4,0.5-0.7,0.5c-0.4,0-0.7-0.2-0.7-0.5v-1.6c-3.2-0.2-5-1.8-5.5-4.3c0-0.2,0-0.2,0-0.4c0-0.5,0.4-0.9,0.9-0.9
  c0.2,0,0.2,0,0.4,0c0.5,0,0.9,0.2,1.1,0.7c0.4,1.8,1.2,2.7,3.4,2.8v-6.8c-3.6-0.4-5.3-1.8-5.3-4.6c0-3,2.5-4.6,5.2-4.8V5.7
  c0-0.4,0.4-0.5,0.7-0.5c0.4,0,0.7,0.2,0.7,0.5v1.1c2.7,0.4,4.4,1.8,5,3.9c0,0.2,0,0.2,0,0.4c0,0.5-0.4,0.7-0.7,0.9
  c-0.2,0-0.2,0-0.4,0c-0.4,0-0.7-0.2-0.9-0.7c-0.4-1.4-1.2-2.3-3-2.5v6c3.2,0.7,5.5,1.8,5.5,5.2C22.8,23.5,20.1,25.1,17.1,25.1z
   M12.4,11.6c0,1.6,0.7,2.5,3.2,3V8.7C13.7,8.9,12.4,10,12.4,11.6z M17.1,16.9v6.4c2.3-0.2,3.6-1.2,3.6-3.2
  C20.6,17.8,19.2,17.2,17.1,16.9z"/>
  <path id="briefcase" d="M23.1,5.3c0-1.4-1.2-2.7-2.8-2.7h-8.7c-1.4,0-2.7,1.2-2.7,2.7v4.4H7.1v19.6h17.8V9.8h-1.8V5.3z M20.8,9.8H11
  V5.3c0-0.4,0.2-0.5,0.5-0.5h8.7c0.4,0,0.5,0.2,0.5,0.5V9.8z M1.8,9.8h2.7v19.6H1.8c-0.9,0-1.8-0.9-1.8-1.8v-16
  C0,10.5,0.9,9.8,1.8,9.8z M32,11.6v16c0,0.9-0.7,1.8-1.8,1.8h-2.7V9.8h2.7C31.3,9.8,32,10.5,32,11.6z"/>
  <path id="fingerprint" d="M1.4,25.3l1.2-2.1c1.1-1.9,2.8-3.5,4.9-4l3.3-1.1c1.1-0.4,1.4-1.4,1.2-2.3c0-0.2-0.2-0.4-0.4-0.5L10,12.1
  C9,10.7,8.6,9,9,7.4l0.5-2.1c0.4-1.6,1.2-2.8,2.5-3.9C13,0.5,14.4,0,15.8,0s2.6,0.4,3.9,1.2c1.6,1.1,2.3,2.5,2.6,4.4l0.4,1.9
  c0.2,1.6-0.2,3.2-1.1,4.6l-2.1,3.3c-0.2,0.2-0.2,0.4-0.4,0.5c-0.4,1.1,0.2,1.9,1.2,2.3l3.3,1.1c2.1,0.7,4,2.1,4.9,4l1.2,2.1
  c0.5,0.9,0,1.8-0.9,2.1l-10,3.7c-1.2,0.4-2.3,0.7-3.3,0.7c-1.2,0-2.3-0.2-3.3-0.7l-10-3.7C1.4,27.3,0.9,26.2,1.4,25.3"/>
  <path id="cart" d="M26.9,21.4H9.4c-0.7,0-1.3,0.5-1.3,1.3s0.5,1.3,1.3,1.3h17.5c0.7,0,1.3-0.5,1.3-1.3
  C28.5,21.9,27.8,21.4,26.9,21.4z M13.3,30.1c1.3,0,2.7-1.2,2.7-2.7c0-1.3-1.2-2.7-2.7-2.7s-2.7,1.2-2.7,2.7
  C10.6,29,12,30.1,13.3,30.1z M23.9,30.1c1.3,0,2.7-1.2,2.7-2.7c0-1.3-1.2-2.7-2.7-2.7c-1.5,0-2.7,1.2-2.7,2.7
  C21.4,29,22.6,30.1,23.9,30.1z M31.5,7.4L31.5,7.4H7.6V7.2L5.7,2.5C5.4,2.2,5.1,1.9,4.6,1.9H0.7C0,1.9,0,2.5,0,2.9
  C0,3.5-0.2,4,0.7,4.2h2.7l0.7,1.5l4,13.3c0,0.2,0.2,0.5,0.8,0.5h18.5c0.3,0,0.7-0.2,0.7-0.5L32,8.3C32,8.1,31.8,7.4,31.5,7.4z"/>
  <path id="vacation" d="M3.6,27l-2.5-1.8L0.8,25c-0.7-0.4-0.7-1.2-0.4-2c0.4-0.5,1.1-0.7,1.6-0.5l3.6,1.2c0-0.4,0.2-0.9,0.4-1.4
  c0.2-0.7,0.5-1.6,1.1-2.3c0.2-0.4,0.5-0.7,0.7-1.2c0.2-0.4,0.5-0.9,0.9-1.2c0.4-0.9,1.1-1.6,1.8-2.5c0.7-0.9,1.4-1.6,2.3-2.5
  c0.4-0.4,0.9-0.7,1.2-1.2c0.4-0.2,0.9-0.7,1.2-1.1c0.2-0.2,0.2-0.2,0.4-0.4L3.1,7.3c-0.2,0-0.2,0-0.4,0l-2,0.9
  C0.2,8.3-0.3,7.6,0.2,7.1l2-2C2.4,5,2.4,5,2.5,5h17.9c0.5-0.5,1.2-1.1,1.8-1.6c0.7-0.7,1.4-1.2,2.1-1.8c0.4-0.4,0.7-0.5,1.1-0.7
  c0.4-0.2,0.7-0.4,1.1-0.5c0.5,0,0.9-0.2,1.2-0.2s0.7,0,1.1,0s0.7,0,1.1,0c0.4,0,0.5,0,0.7,0.2c0.5,0,0.7,0.2,0.7,0.2
  c0.2,0,0.2,0.2,0.4,0.4c0,0,0,0.4,0.2,0.7c0,0.2,0,0.5,0.2,0.7c0,0.4,0,0.7,0,1.1s0,0.7,0,1.1c0,0.4,0,0.9-0.2,1.2
  c-0.2,0.4-0.4,0.7-0.5,1.1c-0.2,0.4-0.5,0.7-0.7,1.1c-0.5,0.7-1.1,1.4-1.8,2.1c-0.4,0.4-0.7,0.7-1.1,1.1v17.8c0,0.2,0,0.4-0.2,0.4
  l-2,2c-0.5,0.5-1.2,0-1.1-0.5l0.7-2c0-0.2,0-0.2,0-0.4L22.8,16c-0.4,0.4-0.7,0.7-0.9,0.9c-0.4,0.4-0.7,0.9-1.2,1.2
  c-0.4,0.4-0.7,0.9-1.2,1.2c-0.7,0.9-1.6,1.6-2.5,2.3c-0.9,0.7-1.6,1.4-2.5,2c-0.4,0.4-0.9,0.5-1.2,0.9c-0.4,0.2-0.7,0.5-1.2,0.7
  c-0.7,0.4-1.6,0.7-2.3,1.1c-0.4,0.2-0.7,0.2-1.2,0.4L9.6,30c0.4,0.7,0,1.4-0.7,1.8c-0.5,0.2-1.2,0-1.6-0.5l-0.2-0.4l-1.8-2.3
  c-0.2,0-0.2,0-0.4,0.2c-0.4,0-0.5,0.2-0.7,0.2s-0.2,0-0.4,0c-0.2,0-0.2,0-0.4,0c-0.2,0-0.4,0-0.5,0c-0.2,0-0.2,0-0.2,0s0,0,0-0.2
  c0-0.2,0-0.2,0-0.5c0-0.2,0-0.2,0-0.4c0-0.2,0-0.2,0-0.4C3.4,27.5,3.4,27.3,3.6,27L3.6,27z M5.7,28.4L5.7,28.4L5.7,28.4L5.7,28.4z"
  />
  <path id="gift" d="M30.3,8.1h-4.5V8c0.7-0.7,1.3-1.9,1.3-3.2c0-2.6-2.1-4.7-4.9-4.7c-1.5,0-4.5,1.5-6.4,3.4C14,1.6,11,0.1,9.5,0.1
  c-2.6,0-4.9,2.1-4.9,4.7C4.7,6.1,5.2,7.2,6,8H1.7C0.6,8,0,8.7,0,9.6v4.5c0,0.2,0.2,0.4,0.4,0.4h13.8V9.6h3.2v4.9h14.2
  c0.2,0,0.4-0.2,0.4-0.4V9.6C32,8.7,31.4,8.1,30.3,8.1z M9.5,6.5C8.6,6.5,8,5.9,8,4.8s0.6-1.5,1.5-1.5s3.7,1.9,4.7,2.8
  C13.7,6.3,9.5,6.5,9.5,6.5z M22.3,6.5c0,0-4.1-0.2-4.7-0.4c0.9-1.1,3.7-2.8,4.7-2.8S24,3.8,24,4.8S23.2,6.5,22.3,6.5z M1.7,17.7
  h12.7v14.2H1.7V17.7z M17.6,17.7h12.7v14.2H17.6V17.7z"/>
  <path id="food" d="M14.1,0.9v5.3h-1.4V0.9c0-1.1-1.4-1.1-1.4,0v5.3h-1.2V0.9c0-1.1-1.4-1.1-1.4,0v5.3H7.2V0.9c0-1.2-1.6-1.1-1.6,0
  v10.4c0,1.8,1.2,3,2.8,3v15.2c0,1.6,1.1,2.5,2.1,2.5s2.1-0.9,2.1-2.5V14.3c1.6,0,2.8-1.4,2.8-2.8V0.9C15.6-0.4,14.1-0.2,14.1,0.9z
   M19.8,3.7v25.8c0,3.2,4.2,3.2,4.2,0V17.1h2.3V3.7C26.5-1.2,19.8-1.2,19.8,3.7z"/>
  <circle id="circle" r="16" cx="16" cy="16" fill-rule="evenodd"/>
</svg>
