<svg width="116" height="80" viewBox="0 0 116 80" fill="none" xmlns="http://www.w3.org/2000/svg">
<path fill-rule="evenodd" clip-rule="evenodd" d="M58 9C54.6863 9 52 11.6863 52 15C52 18.3137 54.6863 21 58 21C61.3137 21 64 18.3137 64 15C64 11.6863 61.3137 9 58 9ZM44 15C44 7.26801 50.268 1 58 1C65.732 1 72 7.26801 72 15C72 22.732 65.732 29 58 29C55.589 29 53.3203 28.3905 51.3396 27.3172L45.3172 33.3396C45.7718 34.1784 46.1431 35.0689 46.4202 36H69.5798C71.3009 30.217 76.658 26 83 26C90.732 26 97 32.268 97 40C97 47.732 90.732 54 83 54C80.589 54 78.3203 53.3905 76.3396 52.3172L70.3172 58.3396C71.3905 60.3203 72 62.589 72 65C72 72.732 65.732 79 58 79C50.268 79 44 72.732 44 65C44 57.268 50.268 51 58 51C60.411 51 62.6797 51.6095 64.6604 52.6827L70.6827 46.6604C70.2282 45.8215 69.8568 44.9311 69.5798 44H46.4202C44.6992 49.783 39.342 54 33 54C25.268 54 19 47.732 19 40C19 32.268 25.268 26 33 26C35.411 26 37.6797 26.6095 39.6604 27.6827L45.6827 21.6604C44.6095 19.6797 44 17.411 44 15ZM52 65C52 61.6863 54.6863 59 58 59C61.3137 59 64 61.6863 64 65C64 68.3137 61.3137 71 58 71C54.6863 71 52 68.3137 52 65ZM33 34C29.6863 34 27 36.6863 27 40C27 43.3137 29.6863 46 33 46C36.3137 46 39 43.3137 39 40C39 36.6863 36.3137 34 33 34ZM77 40C77 36.6863 79.6863 34 83 34C86.3137 34 89 36.6863 89 40C89 43.3137 86.3137 46 83 46C79.6863 46 77 43.3137 77 40Z" fill="white"/>
<rect x="58" y="40" width="32" height="32" rx="16" fill="#3FE1B0"/>
</svg>
