<svg width="16" height="16" viewBox="0 0 16 16" fill="context-fill" xmlns="http://www.w3.org/2000/svg">
<path d="M11.375 5.12493V6.375C11.375 6.54076 11.4408 6.69973 11.558 6.81694C11.6753 6.93415 11.8342 7 12 7C12.1658 7 12.3247 6.93415 12.4419 6.81694C12.5591 6.69973 12.625 6.54076 12.625 6.375V5.12493L13.125 4.62493L14.375 4.625C14.5408 4.625 14.6997 4.55915 14.8169 4.44194C14.9341 4.32473 15 4.16576 15 4C15 3.83424 14.9341 3.67527 14.8169 3.55806C14.6997 3.44085 14.5408 3.375 14.375 3.375L13.125 3.37493L12.625 2.87493V1.625C12.625 1.45924 12.5591 1.30027 12.4419 1.18306C12.3247 1.06585 12.1658 1 12 1C11.8342 1 11.6753 1.06585 11.558 1.18306C11.4408 1.30027 11.375 1.45924 11.375 1.625V2.87493L10.875 3.37493L9.625 3.375C9.45924 3.375 9.30027 3.44085 9.18306 3.55806C9.06585 3.67527 9 3.83424 9 4C9 4.16576 9.06585 4.32473 9.18306 4.44194C9.30027 4.55915 9.45924 4.625 9.625 4.625L10.762 4.62493L11.375 5.12493Z" />
<path fill-rule="evenodd" clip-rule="evenodd" d="M3 1H5C5.53043 1 6.03914 1.21071 6.41421 1.58579C6.78929 1.96086 7 2.46957 7 3V5C7 5.53043 6.78929 6.03914 6.41421 6.41421C6.03914 6.78929 5.53043 7 5 7H3C2.46957 7 1.96086 6.78929 1.58579 6.41421C1.21071 6.03914 1 5.53043 1 5V3C1 2.46957 1.21071 1.96086 1.58579 1.58579C1.96086 1.21071 2.46957 1 3 1Z" />
<path fill-rule="evenodd" clip-rule="evenodd" d="M3 9H5C5.53043 9 6.03914 9.21071 6.41421 9.58579C6.78929 9.96086 7 10.4696 7 11V13C7 13.5304 6.78929 14.0391 6.41421 14.4142C6.03914 14.7893 5.53043 15 5 15H3C2.46957 15 1.96086 14.7893 1.58579 14.4142C1.21071 14.0391 1 13.5304 1 13V11C1 10.4696 1.21071 9.96086 1.58579 9.58579C1.96086 9.21071 2.46957 9 3 9Z" />
<path fill-rule="evenodd" clip-rule="evenodd" d="M11 9H13C13.5304 9 14.0391 9.21071 14.4142 9.58579C14.7893 9.96086 15 10.4696 15 11V13C15 13.5304 14.7893 14.0391 14.4142 14.4142C14.0391 14.7893 13.5304 15 13 15H11C10.4696 15 9.96086 14.7893 9.58579 14.4142C9.21071 14.0391 9 13.5304 9 13V11C9 10.4696 9.21071 9.96086 9.58579 9.58579C9.96086 9.21071 10.4696 9 11 9Z" />
</svg>
