<svg width="16" height="16" viewBox="0 0 16 16" fill="context-fill" xmlns="http://www.w3.org/2000/svg">
<path fill-rule="evenodd" clip-rule="evenodd" d="M3 1H5C5.53043 1 6.03914 1.21071 6.41421 1.58579C6.78929 1.96086 7 2.46957 7 3V5C7 5.53043 6.78929 6.03914 6.41421 6.41421C6.03914 6.78929 5.53043 7 5 7H3C2.46957 7 1.96086 6.78929 1.58579 6.41421C1.21071 6.03914 1 5.53043 1 5V3C1 2.46957 1.21071 1.96086 1.58579 1.58579C1.96086 1.21071 2.46957 1 3 1Z" />
<path fill-rule="evenodd" clip-rule="evenodd" d="M3 9H5C5.53043 9 6.03914 9.21071 6.41421 9.58579C6.78929 9.96086 7 10.4696 7 11V13C7 13.5304 6.78929 14.0391 6.41421 14.4142C6.03914 14.7893 5.53043 15 5 15H3C2.46957 15 1.96086 14.7893 1.58579 14.4142C1.21071 14.0391 1 13.5304 1 13V11C1 10.4696 1.21071 9.96086 1.58579 9.58579C1.96086 9.21071 2.46957 9 3 9Z" />
<path fill-rule="evenodd" clip-rule="evenodd" d="M11 9H13C13.5304 9 14.0391 9.21071 14.4142 9.58579C14.7893 9.96086 15 10.4696 15 11V13C15 13.5304 14.7893 14.0391 14.4142 14.4142C14.0391 14.7893 13.5304 15 13 15H11C10.4696 15 9.96086 14.7893 9.58579 14.4142C9.21071 14.0391 9 13.5304 9 13V11C9 10.4696 9.21071 9.96086 9.58579 9.58579C9.96086 9.21071 10.4696 9 11 9Z" />
<path d="M10.7074 1C10.6084 0.999824 10.5115 1.02905 10.4291 1.08398C10.3468 1.13891 10.2825 1.21706 10.2446 1.30854C10.2067 1.40001 10.1968 1.50068 10.2162 1.59779C10.2355 1.6949 10.2833 1.78407 10.3534 1.854L11.8074 3.308L9.50003 5.615C9.38321 5.73264 9.31765 5.89171 9.31765 6.0575C9.31765 6.22329 9.38321 6.38236 9.50003 6.5C9.61806 6.6162 9.7771 6.68125 9.94274 6.68107C10.1084 6.68088 10.2673 6.61547 10.385 6.499L12.6924 4.192L12.9734 4.473L14.1464 5.646C14.2163 5.71605 14.3053 5.76379 14.4024 5.78319C14.4994 5.80259 14.6 5.79277 14.6914 5.75498C14.7828 5.71718 14.861 5.65311 14.916 5.57088C14.971 5.48864 15.0004 5.39194 15.0004 5.293V1.3L14.7004 1H10.7074Z" />
</svg>
