<!-- This Source Code Form is subject to the terms of the Mozilla Public
   - License, v. 2.0. If a copy of the MPL was not distributed with this
   - file, You can obtain one at http://mozilla.org/MPL/2.0/. --><svg id="Layer_1" data-name="Layer 1" xmlns="http://www.w3.org/2000/svg" viewBox="0 0 220 160"><defs><style>.cls-1{fill:#6a57a5;}.cls-2{fill:#5a4a9e;}.cls-3{fill:#e7dfff;}</style></defs><title>account</title><path class="cls-1" d="M110,138.89A58.89,58.89,0,1,1,168.89,80,59,59,0,0,1,110,138.89Z"/><path class="cls-2" d="M110,130.27A50.27,50.27,0,1,1,160.27,80,50.33,50.33,0,0,1,110,130.27Z"/><circle class="cls-3" cx="110.39" cy="65.12" r="23.27" transform="translate(-12.01 27.1) rotate(-13.28)"/><path class="cls-3" d="M141.78,92.87c-8.2-9.46-19.58,3.28-31.39,3.28S87.2,83.41,79,92.87a7.83,7.83,0,0,0-.53,9.53,38.43,38.43,0,0,0,63.83,0A7.83,7.83,0,0,0,141.78,92.87Z"/></svg>