<!-- This Source Code Form is subject to the terms of the Mozilla Public
   - License, v. 2.0. If a copy of the MPL was not distributed with this
   - file, You can obtain one at http://mozilla.org/MPL/2.0/. --><svg width="32px" height="33px" viewBox="0 0 32 33" version="1.1" xmlns="http://www.w3.org/2000/svg" xmlns:xlink="http://www.w3.org/1999/xlink"> <!-- Generator: Sketch 46.2 (44496) - http://www.bohemiancoding.com/sketch --> <desc>Created with Sketch.</desc> <defs> <linearGradient x1="74.0423237%" y1="18.5882821%" x2="0%" y2="100%" id="linearGradient-1"> <stop stop-color="#00FEFF" offset="0%"/> <stop stop-color="#3D85FF" offset="100%"/> </linearGradient> </defs> <g id="Specs" stroke="none" stroke-width="1" fill="none" fill-rule="evenodd"> <g id="Header-Copy" transform="translate(-182.000000, -152.000000)" fill="url(#linearGradient-1)"> <path d="M205.58574,176.859518 L205.58574,169.287998 C205.58574,169.287998 205.800116,167.315137 207.086372,167.315137 C208.372629,167.315137 208.265441,169.394639 210.677171,169.394639 C211.909834,169.394639 214,168.754792 214,165.022352 C214,161.289912 211.909834,160.810027 210.677171,160.810027 C208.265441,160.810027 208.372629,162.782888 207.086372,162.782888 C205.800116,162.782888 205.58574,160.756707 205.58574,160.756707 L205.58574,157.664114 C205.58574,156.491061 204.621048,155.531291 203.44198,155.531291 L197.814608,155.531291 C197.814608,155.531291 195.992412,155.211368 195.992412,153.931674 C195.992412,152.65198 198.028985,152.545339 198.028985,150.145914 C198.028985,148.91954 197.332262,147 193.580682,147 C189.829101,147 189.293161,148.91954 189.293161,150.145914 C189.293161,152.545339 191.115357,152.65198 191.115357,153.931674 C191.115357,155.211368 189.293161,155.531291 189.293161,155.531291 L184.148135,155.531291 C182.969067,155.531291 182.004375,156.491061 182.004375,157.664114 L182.004375,161.823118 C182.004375,161.823118 181.789999,165.022352 184.362512,165.022352 C186.023926,165.022352 186.07752,162.836209 188.274874,162.836209 C189.346755,162.836209 190.418635,163.8493 190.418635,166.035443 C190.418635,168.274907 189.346755,169.394639 188.274874,169.394639 C186.131114,169.394639 186.023926,167.208496 184.362512,167.208496 C181.789999,167.208496 182.004375,170.301089 182.004375,170.301089 L182.004375,176.859518 C182.004375,178.032571 182.969067,178.992341 184.148135,178.992341 L191.115357,178.992341 C191.115357,178.992341 194.49178,179.205623 194.49178,176.646236 C194.49178,174.993299 192.348019,174.726696 192.348019,172.540552 C192.348019,171.474141 193.527088,170.141127 195.778036,170.141127 C198.028985,170.141127 199.315241,171.474141 199.315241,172.540552 C199.315241,174.673375 197.225074,174.993299 197.225074,176.646236 C197.225074,179.258944 200.601497,178.992341 200.601497,178.992341 L203.44198,178.992341 C204.621048,178.992341 205.58574,178.032571 205.58574,176.859518 Z" id="Shape-Copy-23" transform="translate(198.000000, 163.000000) rotate(-42.000000) translate(-198.000000, -163.000000) "/> </g> </g> </svg>