<svg width="24" height="24" viewBox="0 0 24 24" fill="none" xmlns="http://www.w3.org/2000/svg">
<path d="M13.2225 11.9895L17.7594 7.45261C17.9155 7.29095 18.0019 7.07443 18 6.84969C17.998 6.62495 17.9079 6.40997 17.7489 6.25105C17.59 6.09213 17.375 6.00199 17.1503 6.00003C16.9256 5.99808 16.709 6.08447 16.5474 6.24061L12.0105 10.7775L7.47368 6.24061C7.31202 6.08447 7.0955 5.99808 6.87076 6.00003C6.64602 6.00199 6.43104 6.09213 6.27212 6.25105C6.1132 6.40997 6.02305 6.62495 6.0211 6.84969C6.01914 7.07443 6.10554 7.29095 6.26168 7.45261L10.7985 11.9895L6.26168 16.5263C6.17981 16.6054 6.11451 16.7 6.06959 16.8045C6.02467 16.9091 6.00102 17.0216 6.00003 17.1354C5.99904 17.2492 6.02073 17.3621 6.06383 17.4674C6.10693 17.5728 6.17057 17.6685 6.25105 17.7489C6.33153 17.8294 6.42723 17.8931 6.53257 17.9362C6.63791 17.9793 6.75078 18.001 6.86459 18C6.9784 17.999 7.09088 17.9753 7.19545 17.9304C7.30003 17.8855 7.39461 17.8202 7.47368 17.7383L12.0105 13.2015L16.5474 17.7383C16.709 17.8945 16.9256 17.9809 17.1503 17.9789C17.375 17.9769 17.59 17.8868 17.7489 17.7279C17.9079 17.569 17.998 17.354 18 17.1292C18.0019 16.9045 17.9155 16.688 17.7594 16.5263L13.2225 11.9895Z" fill="#ffffff"/>
</svg>
