<?xml version="1.0" encoding="UTF-8"?>
<svg width="16px" height="16px" viewBox="0 0 16 16" version="1.1" xmlns="http://www.w3.org/2000/svg" xmlns:xlink="http://www.w3.org/1999/xlink">
    <!-- Generator: Sketch 52.6 (67491) - http://www.bohemiancoding.com/sketch -->
    <title>container-allowin-16</title>
    <desc>Created with Sketch.</desc>
    <g id="container-allowin-16" stroke="none" stroke-width="1" fill="none" fill-rule="evenodd">
        <path d="M8,15 C4.13400675,15 1,11.8659932 1,8 C1,4.13400675 4.13400675,1 8,1 C11.8659932,1 15,4.13400675 15,8 C15,11.8659932 11.8659932,15 8,15 Z M10.2928932,5.29289322 L7,8.58578644 L5.70710678,7.29289322 C5.31658249,6.90236893 4.68341751,6.90236893 4.29289322,7.29289322 C3.90236893,7.68341751 3.90236893,8.31658249 4.29289322,8.70710678 L6.29289322,10.7071068 C6.68341751,11.0976311 7.31658249,11.0976311 7.70710678,10.7071068 L11.7071068,6.70710678 C12.0976311,6.31658249 12.0976311,5.68341751 11.7071068,5.29289322 C11.3165825,4.90236893 10.6834175,4.90236893 10.2928932,5.29289322 Z" id="Combined-Shape" fill="#000000"></path>
    </g>
</svg>