<?xml version="1.0" encoding="UTF-8" standalone="no"?> <svg xmlns:dc="http://purl.org/dc/elements/1.1/" xmlns:cc="http://creativecommons.org/ns#" xmlns:rdf="http://www.w3.org/1999/02/22-rdf-syntax-ns#" xmlns:svg="http://www.w3.org/2000/svg" xmlns="http://www.w3.org/2000/svg" width="16" height="16" version="1.1" id="svg865"> <defs id="defs869" /> <metadata id="metadata861"> <rdf:RDF> <cc:Work rdf:about=""> <dc:format>image/svg+xml</dc:format> <dc:type rdf:resource="http://purl.org/dc/dcmitype/StillImage" /> <dc:title></dc:title> </cc:Work> </rdf:RDF> </metadata> <path style="fill:#000000;stroke-width:0.0533199" d="M 7.9984551,6.3494063e-8 A 7.9979925,7.9979925 0 1 0 7.9984551,15.995985 7.9979925,7.9979925 0 1 0 7.9984551,6.3494063e-8 Z M 4.0307043,2.884716 A 6.4745881,6.4745881 0 0 1 7.9984551,1.5234043 6.4745881,6.4745881 0 0 1 14.473044,7.9979927 6.4745881,6.4745881 0 0 1 13.111731,11.965743 Z M 11.966205,13.11127 A 6.4745881,6.4745881 0 0 1 7.9984551,14.47258 6.4745881,6.4745881 0 0 1 1.5238668,7.9979927 6.4745881,6.4745881 0 0 1 2.8851785,4.0302417 Z" id="path863" /> </svg>
