<svg width="24" height="24" viewBox="0 0 24 24" fill="none" xmlns="http://www.w3.org/2000/svg">
<path fill-rule="evenodd" clip-rule="evenodd" d="M16.9 11H19C19.5523 11 20 11.4477 20 12C20 12.5523 19.5523 13 19 13H16.9C16.7709 13.6264 16.522 14.222 16.167 14.754L17.657 16.244C18.036 16.6364 18.0306 17.2601 17.6448 17.6458C17.2591 18.0316 16.6354 18.037 16.243 17.658L14.753 16.168C14.2212 16.5225 13.626 16.771 13 16.9V19C13 19.5523 12.5523 20 12 20C11.4477 20 11 19.5523 11 19V16.9C10.3698 16.7705 9.77066 16.5199 9.236 16.162C9.23047 16.1685 9.22642 16.1758 9.22239 16.183C9.21769 16.1915 9.21301 16.2 9.206 16.207L7.756 17.657C7.50493 17.917 7.13312 18.0212 6.78349 17.9297C6.43386 17.8382 6.16082 17.5651 6.0693 17.2155C5.97779 16.8659 6.08204 16.4941 6.342 16.243L7.792 14.793C7.79865 14.7863 7.80662 14.7821 7.81468 14.7777C7.82238 14.7735 7.83017 14.7693 7.837 14.763C7.47957 14.2286 7.22927 13.6298 7.1 13H5C4.44772 13 4 12.5523 4 12C4 11.4477 4.44772 11 5 11H7.1C7.22925 10.3739 7.47814 9.77872 7.833 9.247L6.343 7.757C5.95226 7.36653 5.95203 6.73324 6.3425 6.3425C6.73297 5.95176 7.36626 5.95153 7.757 6.342L9.247 7.832C9.77881 7.47751 10.374 7.22897 11 7.1V5C11 4.44772 11.4477 4 12 4C12.5523 4 13 4.44772 13 5V7.1C13.6264 7.22915 14.222 7.47804 14.754 7.833L16.244 6.343C16.6364 5.96403 17.2601 5.96945 17.6458 6.35518C18.0316 6.74092 18.037 7.36462 17.658 7.757L16.168 9.247C16.5225 9.7788 16.7711 10.374 16.9 11ZM12 9C10.3431 9 9 10.3431 9 12C9 13.6569 10.3431 15 12 15C13.6569 15 15 13.6569 15 12C15 10.3431 13.6569 9 12 9Z" fill="#6D6D6E"/>
</svg>
