<!-- This Source Code Form is subject to the terms of the Mozilla Public
   - License, v. 2.0. If a copy of the MPL was not distributed with this
   - file, You can obtain one at http://mozilla.org/MPL/2.0/. -->
<svg id="Flat_For_Export_" data-name="icon" xmlns="http://www.w3.org/2000/svg" viewBox="0 0 16 16">
  <defs>
    <style>
      .cls-1{fill-rule:evenodd}
    </style>
  </defs>
  <path fill="context-fill" fill-opacity="context-fill-opacity" class="cls-1" d="M8 1a7 7 0 1 0 7 7 7 7 0 0 0-7-7zm0 13a6 6 0 1 1 6-6 6 6 0 0 1-6 6z"/>
  <path fill="context-fill" fill-opacity="context-fill-opacity" class="cls-1" d="M8 7a1 1 0 0 0-1 1v3a1 1 0 0 0 2 0V8a1 1 0 0 0-1-1z"/>
  <circle cx="8" cy="5" r="1.19"/>
</svg>
