<svg version="1.1" xmlns="http://www.w3.org/2000/svg" xmlns:xlink="http://www.w3.org/1999/xlink" x="0px" y="0px"
	 viewBox="0 0 48 48" style="enable-background:new 0 0 48 48;" xml:space="preserve">
<style type="text/css">
	.st0{fill-rule:evenodd;clip-rule:evenodd;}
</style>
<path class="st0" fill="#ffffff" d="M24,8.1c-1.7,0-3.1,1.4-3.1,3.1s1.4,3.1,3.1,3.1s3.1-1.4,3.1-3.1S25.7,8.1,24,8.1z M16.8,11.2
	C16.8,7.2,20,4,24,4c4,0,7.2,3.2,7.2,7.2c0,4-3.2,7.2-7.2,7.2c-1.2,0-2.4-0.3-3.4-0.9l-3.1,3.1c0.2,0.4,0.4,0.9,0.6,1.4h11.9
	c0.9-3,3.6-5.1,6.9-5.1c4,0,7.2,3.2,7.2,7.2c0,4-3.2,7.2-7.2,7.2c-1.2,0-2.4-0.3-3.4-0.9l-3.1,3.1c0.6,1,0.9,2.2,0.9,3.4
	c0,4-3.2,7.2-7.2,7.2c-4,0-7.2-3.2-7.2-7.2c0-4,3.2-7.2,7.2-7.2c1.2,0,2.4,0.3,3.4,0.9l3.1-3.1c-0.2-0.4-0.4-0.9-0.6-1.4H18.1
	c-0.9,3-3.6,5.1-6.9,5.1C7.2,31.2,4,28,4,24c0-4,3.2-7.2,7.2-7.2c1.2,0,2.4,0.3,3.4,0.9l3.1-3.1C17.1,13.6,16.8,12.4,16.8,11.2z
	 M20.9,36.8c0-1.7,1.4-3.1,3.1-3.1s3.1,1.4,3.1,3.1c0,1.7-1.4,3.1-3.1,3.1S20.9,38.5,20.9,36.8z M11.2,20.9c-1.7,0-3.1,1.4-3.1,3.1
	c0,1.7,1.4,3.1,3.1,3.1s3.1-1.4,3.1-3.1C14.3,22.3,12.9,20.9,11.2,20.9z M33.7,24c0-1.7,1.4-3.1,3.1-3.1c1.7,0,3.1,1.4,3.1,3.1
	c0,1.7-1.4,3.1-3.1,3.1C35.1,27.1,33.7,25.7,33.7,24z"/>
</svg>
