<svg width="24" height="24" viewBox="0 0 24 24" fill="none" xmlns="http://www.w3.org/2000/svg">
<rect width="24" height="24" rx="12" fill="#FF4F5E"/>
<path fill-rule="evenodd" clip-rule="evenodd" d="M16.4795 7.53871C16.2191 7.27845 15.7971 7.27845 15.5368 7.53871L15.1788 7.89671C15.117 7.87445 15.0534 7.85728 14.9888 7.84537L12.0081 7.33337L9.02613 7.84537C8.4364 7.94856 8.00663 8.46136 8.00813 9.06004C8.00813 9.74337 8.00813 10.9714 8.06146 11.5307C8.10287 12.4926 8.34805 13.4347 8.78079 14.2947L7.53679 15.5387C7.36349 15.7061 7.29399 15.954 7.355 16.187C7.41601 16.4201 7.59804 16.6022 7.83112 16.6632C8.06421 16.7242 8.31208 16.6547 8.47946 16.4814L16.4795 8.48137C16.7397 8.22104 16.7397 7.79904 16.4795 7.53871ZM13.6834 14.2647C13.2738 14.8133 12.6781 15.1937 12.0081 15.3347C11.6742 15.2637 11.3558 15.1332 11.0681 14.9494L10.1108 15.9074C10.6477 16.3057 11.2731 16.5682 11.9334 16.6727L12.0081 16.6807L12.0828 16.6727C13.1507 16.5013 14.1099 15.921 14.7574 15.0547C15.5105 14.0315 15.9296 12.8009 15.9574 11.5307C15.9861 11.1854 15.9994 10.5834 16.0081 10.01L14.6748 11.3434C14.6572 12.3967 14.3106 13.4182 13.6834 14.2647ZM9.33265 10.233C9.32603 10.7445 9.32117 11.1202 9.34142 11.3434C9.3808 12.0146 9.52662 12.6753 9.77342 13.3007L14.0401 9.03404L12.0081 8.68537L9.34142 9.14337C9.34142 9.55502 9.33671 9.9195 9.33265 10.233Z" fill="white"/>
</svg>
