<svg width="24" height="24" viewBox="0 0 24 24" fill="none" xmlns="http://www.w3.org/2000/svg">
<rect width="24" height="24" rx="12" fill="#3FE1B0"/>
<path fill-rule="evenodd" clip-rule="evenodd" d="M12 16.6807L11.9253 16.6727C10.8574 16.5013 9.89817 15.921 9.25066 15.0547C8.49758 14.0315 8.07852 12.8008 8.05066 11.5307C8 10.9713 8 9.74334 8 9.06001C7.9985 8.46133 8.42828 7.94853 9.018 7.84534L12 7.33334L14.9807 7.84534C15.5712 7.948 16.0017 8.46132 16 9.06068C16 9.74268 16 10.9713 15.9467 11.5307C15.9188 12.8008 15.4998 14.0315 14.7467 15.0547C14.0992 15.921 13.1399 16.5013 12.072 16.6727L12 16.6807ZM9.32459 10.2329L9.32459 10.2329V10.233C9.31797 10.7444 9.31311 11.1201 9.33336 11.3433C9.35087 12.3967 9.69751 13.4182 10.3247 14.2647C10.7345 14.8132 11.3301 15.1936 12 15.3347C12.6698 15.1936 13.2652 14.8131 13.6747 14.2647C14.3021 13.4183 14.649 12.3968 14.6667 11.3433C14.6869 11.1201 14.6821 10.7444 14.6755 10.2329C14.6714 9.91947 14.6667 9.55499 14.6667 9.14334L12 8.68668L9.33336 9.14334C9.33336 9.55498 9.32864 9.91945 9.32459 10.2329ZM10.3333 9.98668L12 9.70134V14.302H11.9947C11.6484 14.1858 11.346 13.9664 11.128 13.6733C10.6247 12.9932 10.3599 12.166 10.3747 11.32C10.3533 11.09 10.3393 10.6147 10.3333 9.98668Z" fill="white"/>
</svg>
