<!-- This Source Code Form is subject to the terms of the Mozilla Public
   - License, v. 2.0. If a copy of the MPL was not distributed with this
   - file, You can obtain one at http://mozilla.org/MPL/2.0/. -->
<svg data-name="icon" xmlns="http://www.w3.org/2000/svg" viewBox="0 0 16 16">
  <path fill="context-fill" fill-opacity="context-fill-opacity" d="M14.92 1.62a1 1 0 0 0-0.54-0.54A1 1 0 0 0 14 1H9a1 1 0 0 0 0 2h2.59l-3.3 3.29a1 1 0 0 0 0 1.42 1 1 0 0 0 1.42 0L13 4.41V7a1 1 0 0 0 2 0V2a1 1 0 0 0-0.08-0.38z"/>
  <path fill="context-fill" fill-opacity="context-fill-opacity" d="M14 10a1 1 0 0 0-1 1v1a1 1 0 0 1-1 1H4a1 1 0 0 1-1-1V4a1 1 0 0 1 1-1h1a1 1 0 0 0 0-2H4a3 3 0 0 0-3 3v8a3 3 0 0 0 3 3h8a3 3 0 0 0 3-3v-1a1 1 0 0 0-1-1z"/>
</svg>
