<!-- This Source Code Form is subject to the terms of the Mozilla Public
   - License, v. 2.0. If a copy of the MPL was not distributed with this
   - file, You can obtain one at http://mozilla.org/MPL/2.0/. -->
<svg width="261" height="254" viewBox="0 0 261 254" fill="none" xmlns="http://www.w3.org/2000/svg">
<path d="M115.049 59.4262C115.049 59.4262 110.771 65.1311 109.82 69.4098C108.869 73.6885 107.443 100.787 127.41 105.066C147.377 109.344 157.836 102.689 158.787 98.8852C159.738 95.082 164.492 60.377 148.803 58.4754C133.115 56.5738 132.164 51.8197 115.049 59.4262Z" fill="#FFFBFF"/>
<path d="M207.992 120.987C210.426 123.435 213.378 125.271 215.774 127.766C216.093 128.099 216.506 128.304 216.915 128.513C217.034 128.575 217.105 128.741 217.224 128.789C219.307 129.64 220.661 131.418 222.344 132.772C224.493 134.508 226.761 136.1 228.872 137.878C232.157 140.64 235.266 143.588 238.252 146.683C241.774 150.339 244.632 154.461 247.503 158.611C250.655 163.165 252.642 168.2 254.273 173.42C255.214 176.434 255.965 179.481 256.36 182.619C256.427 183.147 256.156 183.708 256.507 184.207C256.555 185.8 256.355 187.392 256.507 188.985C256.412 191.3 255.747 193.549 255.656 195.869C255.647 196.14 255.585 196.568 255.509 196.829C254.568 200.138 253.683 203.485 252.077 206.542C250.327 209.865 248.326 213.036 246.129 216.107C244.251 218.727 242.174 221.156 239.911 223.405C237.32 225.977 234.463 228.249 231.411 230.284C227.498 232.889 223.338 235 219.055 236.887C215.822 238.309 212.484 239.464 209.138 240.591C206.066 241.627 202.957 242.545 199.805 243.258C196.083 244.104 192.356 244.945 188.548 245.43C185.201 245.853 181.854 246.286 178.488 246.486C175.892 246.638 173.277 246.733 170.667 246.571C167.572 246.376 164.473 246.319 161.387 245.991C160.498 245.896 154.204 245.254 152.012 244.665C149.302 243.942 146.574 243.291 143.883 242.507C142.024 241.965 140.227 241.251 138.454 240.51C134.627 238.912 130.847 237.211 127.063 235.518C123.526 233.935 120.155 232.01 116.889 229.922C114.217 228.211 111.151 227.132 108.446 225.501C105.741 223.87 102.703 222.401 99.6364 221.28C96.1089 219.996 92.7145 218.351 89.1204 217.191C87.2567 216.587 85.4074 215.926 83.5343 215.375C81.2808 214.714 77.9815 214.41 75.129 214.41C73.1323 214.41 68.4733 213.459 69.9851 211.301C70.4748 210.274 71.3448 209.494 72.0579 208.629C75.7138 204.198 79.0322 199.482 83.0303 195.336C85.1079 193.183 87.3518 191.2 89.6243 189.251C91.2597 187.853 95.0677 184.54 95.044 184.644C93.2707 184.654 91.7208 185.633 89.9761 185.771C88.9635 185.852 85.9922 186.727 85.6546 186.327C85.3171 185.928 87.6561 183.014 88.6592 181.878C89.8763 180.499 91.35 179.439 92.8428 178.398C95.6715 176.434 98.4669 174.414 101.476 172.721C104.177 171.2 106.948 169.831 109.853 168.713C111.774 167.977 113.675 167.192 115.653 166.636C118.406 165.856 121.149 165.048 123.977 164.544C126.887 164.026 129.83 163.802 132.749 163.398C133.448 163.303 134.161 163.318 134.869 163.322C135.444 163.327 135.639 163.241 135.549 162.533C134.993 158.079 134.161 153.662 133.638 149.207C133.286 146.203 132.891 143.203 132.625 140.189C132.283 136.333 132.112 132.468 131.85 128.613C131.636 125.461 131.484 122.304 131.361 119.152C131.261 116.704 131.47 114.241 131.551 111.788C131.551 111.679 131.636 111.574 131.679 111.469C132.601 111.027 133.79 111.588 134.337 111.588C134.303 111.94 134.237 115.61 134.123 117.122C135.069 115.762 135.682 114.208 136.961 113.119C138.083 112.178 139.4 111.583 140.717 110.994C142.495 110.381 144.363 110.49 146.193 110.276C146.193 110.347 146.193 110.419 146.193 110.49C144.991 110.861 143.693 110.97 142.533 111.36C140.688 111.978 138.953 112.962 137.431 114.241C137.046 114.564 136.785 114.949 136.676 115.444C136.994 115.548 137.18 115.468 137.36 115.396C139.528 114.526 141.762 114.222 144.078 114.583C144.449 114.64 144.943 114.583 145.005 115.054C145.076 115.596 144.51 115.477 144.121 115.643C143.954 115.715 143.778 115.748 143.602 115.71C141.049 115.159 138.772 116.152 136.452 116.941C135.891 117.131 135.449 117.583 135.278 118.154C134.893 119.437 134.707 120.764 134.56 122.085C134.455 123.036 134.379 124.025 134.56 125.057C135.449 124.524 136.205 124.025 137.042 123.649C139.343 122.618 141.839 122.86 144.239 122.475C144.439 122.442 144.634 122.537 144.677 122.779C144.715 123.003 144.567 123.145 144.415 123.274C143.754 123.806 142.97 123.84 142.171 123.873C139.894 123.973 137.712 124.377 135.758 125.694C135.211 126.064 135.073 126.364 135.159 127.03C135.478 129.625 136.842 131.593 138.496 133.524C141.021 136.471 144.101 138.397 147.876 139.095C151.299 139.728 154.77 139.861 158.24 139.324C158.777 139.238 159.343 139.305 159.895 139.324C160.303 139.338 160.422 139.604 160.375 139.98C159.115 140.408 157.85 140.812 156.552 140.835C157.218 143.203 157.603 145.561 157.926 147.924C158.083 149.06 157.67 149.54 156.495 149.773C154.798 150.111 153.077 150.344 151.39 150.733C148.722 151.351 146.003 151.385 143.303 151.637C143.008 151.665 142.518 151.779 142.547 151.342C142.613 150.22 142.033 149.264 141.843 148.209C141.282 145.062 140.74 141.915 140.227 138.763C140.061 137.721 140.018 136.6 139.024 135.782C137.317 134.384 136.034 132.592 134.836 130.666C134.641 131.708 134.936 132.639 134.964 133.581C135.073 137.298 135.492 140.997 135.948 144.686C136.219 146.883 136.466 149.079 136.761 151.271C137.046 153.396 137.389 155.511 137.702 157.627C138.016 159.733 138.649 161.763 139.21 163.812C139.376 164.425 139.671 164.492 140.203 164.497C143.041 164.535 145.889 164.278 148.713 164.634C151.085 164.929 153.448 165.305 155.74 166.08C157.289 166.607 158.911 166.926 160.612 167.373C160.27 166.935 160.009 166.603 159.747 166.275C157.812 163.883 155.801 161.578 152.925 160.251C152.459 160.037 152.355 159.633 152.445 159.129C152.597 159.101 152.749 159.067 152.901 159.039C156.22 158.506 159.433 159.239 162.623 159.961C166.565 160.85 170.225 162.533 173.834 164.311C174.323 164.791 174.994 164.962 175.569 165.29C178.669 167.04 181.445 169.227 184.102 171.566C187.06 174.166 190.14 176.629 193.035 179.301C195.17 181.274 197.276 183.294 199.686 184.949C202.962 187.654 206.67 189.655 210.426 191.585C211.058 191.909 214.234 193.658 215.285 193.991C218.118 194.88 221.013 195.46 223.989 195.555C227.969 195.683 232.951 194.923 238.171 192.964C239.611 192.075 238.851 193.283 238.765 193.468C237.71 194.923 232.822 195.788 232.48 195.874C227.892 197.024 223.409 197.162 218.788 196.102C212.988 194.923 207.64 191.524 207.345 191.348C205.881 190.497 204.407 189.655 202.967 188.761C199.368 186.527 196.178 183.76 193.045 180.931C189.384 177.58 185.591 174.385 181.787 171.2C174.841 165.381 166.897 161.696 157.945 160.242C157.094 160.104 156.229 159.771 155.183 160.104C156.243 160.765 156.999 161.554 157.789 162.3C159.191 163.631 160.465 165.072 161.297 166.845C161.777 167.867 161.597 168.176 160.46 168.333C160.156 168.376 159.847 168.428 159.524 168.333C158.159 167.948 156.762 167.658 155.416 167.216C152.626 166.298 149.754 165.823 146.84 165.676C144.472 165.557 142.095 165.647 139.728 165.652C139.376 165.652 139.019 165.614 138.691 165.823C138.054 166.237 137.403 166.26 136.68 165.989C136.295 165.847 135.815 165.89 135.387 165.928C133.229 166.132 131.071 166.37 128.912 166.579C124.914 166.959 121.039 167.943 117.184 169.008C115.301 169.526 113.471 170.259 111.626 170.905C109.04 171.813 106.606 173.054 104.177 174.304C101.571 175.645 99.1467 177.304 96.7507 178.987C95.2294 180.057 93.6558 181.065 92.2343 182.467C94.483 181.958 96.57 181.345 98.7522 181.131C99.489 181.06 100.126 180.836 100.796 180.661C101.315 180.527 101.681 180.936 102.071 181.369C102.532 181.882 102.375 182.277 102.085 182.771C101.728 183.38 101.234 183.898 100.649 184.293C99.7458 184.896 98.7997 185.448 97.9392 186.104C95.5194 187.949 93.1471 189.85 90.8508 191.847C88.5308 193.863 86.2869 195.954 84.1951 198.213C82.322 200.233 80.601 202.372 78.88 204.521C77.373 206.404 75.8707 208.291 74.3684 210.174C73.9643 210.683 74.2638 211.439 74.9056 211.529C75.6615 211.633 76.5315 211.714 77.0069 211.729C79.2889 211.805 81.5661 212 83.7577 212.618C87.9461 213.801 92.0394 215.28 96.0804 216.906C99.6174 218.327 103.031 220.015 106.473 221.646C110.609 223.604 114.669 225.72 118.729 227.831C119.799 228.387 120.906 228.9 121.871 229.661C123.15 230.669 124.643 231.268 126.155 231.819C127.205 232.59 128.403 233.136 129.582 233.612C132.753 234.9 135.839 236.388 139.015 237.662C141.311 238.584 143.574 239.559 145.994 240.172C148.309 240.762 150.638 241.294 152.93 241.984C155.307 242.701 162.281 243.32 163.232 243.495C166.184 244.042 169.165 244.028 172.122 243.976C176.729 243.895 181.331 243.624 185.914 243.001C189.845 242.469 193.734 241.732 197.595 240.857C200.842 240.12 204.036 239.169 207.241 238.233C211.79 236.901 216.15 235.109 220.452 233.189C224.365 231.439 228.121 229.333 231.591 226.818C234.439 224.755 237.149 222.478 239.531 219.849C242.568 216.497 245.24 212.865 247.522 208.971C249.196 206.114 251.054 203.361 251.777 199.995C252.5 196.63 253.441 193.316 253.626 189.855C253.798 186.665 253.76 183.475 253.184 180.332C252.428 176.23 251.078 172.293 249.595 168.404C248.254 164.891 246.329 161.677 244.194 158.601C242.274 155.839 240.391 153.025 238.119 150.539C235.67 147.862 233.084 145.314 230.426 142.842C227.194 139.828 223.561 137.298 220.272 134.356C217.937 132.264 215.327 130.519 212.86 128.603C208.092 124.9 203.385 121.12 199.021 116.937C195.636 113.694 192.218 110.48 188.876 107.195C187.273 105.622 185.662 104.053 184.174 102.356C180.746 98.4431 176.986 94.8205 173.829 90.6654C173.662 90.4467 172.598 89.862 172.122 88.9112C171.647 87.9603 172.488 87.0238 173.368 86.4153C174.856 85.3884 176.082 84.0477 177.509 82.94C179.648 81.2761 181.521 79.3126 183.465 77.4348C185.529 75.4475 187.787 73.6743 189.788 71.6253C190.278 71.1261 189.712 69.5477 189.627 69.2815C188.476 65.8157 187.383 62.3215 185.904 58.9793C184.007 54.6912 182.111 50.4077 180.57 45.7107C179.924 47.0133 179.619 47.7787 179.253 48.9767C179.096 49.4902 178.141 49.8515 177.756 49.4759C177.513 49.243 177.318 48.9625 177.176 48.6582C174.88 43.7187 172.702 38.7459 171.542 33.3785C171.167 31.629 170.938 29.9889 172.17 28.4771C172.312 28.3012 171.319 26.0905 171.138 25.4962C170.791 24.3315 170.358 23.1952 169.959 22.0448C168.856 18.8452 165.937 10.9392 165.148 11.5239C164.801 11.7807 164.511 12.8408 164.045 13.7726C163.009 15.8739 162.343 18.1226 161.44 20.2762C160.185 23.2618 159.124 26.3187 157.979 29.3423C156.538 33.1361 155.164 36.9536 153.71 40.7426C153.244 41.9502 149.516 41.237 148.656 41.3036C147.876 41.3607 146.502 40.7141 146.284 40.0628C145.086 36.4782 144.025 32.8508 142.785 29.2805C141.254 24.8782 139.671 20.4997 137.845 16.2162C137.489 15.3795 137.27 14.4525 136.619 13.5444C136.533 13.4256 136.352 13.4541 136.295 13.5872C135.962 14.3431 135.81 14.6711 135.577 15.2084C134.341 18.0561 133.528 21.0512 132.516 23.9749C131.527 26.8226 131.242 29.0095 129.815 31.862C129.449 32.5893 128.727 33.949 128.522 34.529C128.113 35.6843 127.838 36.8775 127.524 38.0566C126.778 40.833 126.041 43.6141 125.342 46.4048C125.194 46.9895 124.947 47.6361 125.446 48.2066C123.16 48.972 123.06 48.0972 122.941 48.2493C122.028 47.5457 121.89 46.5046 121.653 45.473C120.825 41.8266 120.645 38.1184 120.611 34.4102C120.597 32.6654 120.721 30.8826 121.087 29.1807C121.377 27.8448 121.943 26.5089 122.931 25.4534C123.16 25.2062 124.348 25.1302 124.671 25.1777C125.356 25.2728 127.229 26.9034 128.09 27.7544C128.256 27.9208 128.541 27.8923 128.66 27.6879C129.079 26.97 129.131 26.0572 129.326 25.3489C130.243 22.0305 131.308 18.7644 132.658 15.603C133.357 13.9628 134.242 12.4034 135.064 10.8156C135.311 10.3402 135.535 9.80295 136.176 9.70787H136.542C137.061 9.71738 137.56 9.94558 137.878 10.3592C138.791 11.5287 139.633 13.63 139.989 14.4382C141.453 17.7328 142.865 21.0369 144.092 24.4313C145.052 27.0841 145.822 29.8034 146.878 32.4277C147.524 34.0393 148.009 35.708 148.347 37.41C148.57 38.5557 148.761 38.5748 149.673 38.6936C152.155 39.0074 151.898 37.8854 152.326 36.7016C153.543 33.3452 154.865 30.0269 156.053 26.661C157.422 22.7864 158.863 18.9403 160.451 15.1608C161.326 13.0785 162.305 11.0248 163.227 8.95197C163.565 8.18656 164.325 7.05033 165.851 7.57328C167.378 8.09623 168.248 10.1405 168.88 11.7759C170.301 15.4603 171.908 19.0687 173.159 22.8197C173.206 22.9623 173.33 23.0812 173.477 23.3046C174.228 21.9639 174.941 20.6756 175.84 19.5013C176.458 18.6931 177.323 18.251 178.174 17.8707C179.139 17.4333 180.832 18.6789 180.965 19.7533C181.221 21.8451 181.535 23.9321 181.183 26.0382C181.088 26.6134 181.283 26.6895 181.716 26.4756C183.275 25.7007 184.473 26.0334 185.738 27.6546C186.67 28.8479 186.746 30.2456 186.665 31.6671C186.48 35.0567 185.524 38.2657 184.274 41.3939C183.836 42.4826 183.727 43.6997 182.995 44.6695C182.781 44.9548 183.118 45.0593 183.171 45.2543C183.851 47.7407 185.091 50.0036 186.113 52.3474C188.472 57.7718 190.658 63.2533 192.455 68.9011C192.841 70.1087 192.85 71.1641 192.536 72.2813C192.208 73.4508 191.628 73.7123 190.478 75.0767C188.058 76.8357 185.952 78.9513 183.822 81.0193C181.45 83.3203 178.997 85.5167 176.415 87.5705C176.049 87.8605 175.94 87.9746 175.336 88.4738C176.586 89.2297 177.1 90.5085 177.951 91.4926C179.401 93.1756 180.97 94.7492 182.5 96.3513C183.537 97.4352 184.526 98.5667 185.543 99.6649C189.104 103.511 192.912 107.105 196.672 110.747C199.786 113.766 202.962 116.713 206.19 119.608C206.78 120.136 207.412 120.588 208.054 121.03C207.949 121.03 207.93 121.054 207.987 121.092C208.001 121.063 208.016 121.035 208.035 121.006L207.992 120.987ZM178.169 47.4126C178.36 47.1274 178.569 46.8516 178.735 46.5521C180.042 44.1893 181.193 41.7648 182.111 39.2166C183.085 36.502 183.827 33.7541 183.95 30.8684C183.984 30.0934 183.898 29.2805 183.152 28.7575C182.957 28.6197 182.767 28.4057 182.553 28.6815C181.597 29.9318 180.504 31.1346 180.057 32.6512C179.914 33.1313 179.8 33.4641 179.401 33.4641C178.873 33.4641 178.093 33.4166 178.012 32.808C177.894 31.919 177.028 31.0157 177.908 30.0649C178.041 29.9223 178.008 29.6133 178.032 29.3756C178.165 28.2489 178.331 27.1221 178.407 25.9907C178.526 24.2459 178.669 22.4964 178.231 20.6756C177.214 21.7595 176.719 23.0384 176.087 24.2316C175.555 25.23 175.193 26.3853 174.447 27.1934C173.458 28.2679 173.03 29.5752 172.407 30.8018C172.227 31.1584 172.312 31.648 172.407 32.0854C173.439 36.5875 174.984 40.9185 176.867 45.1307C177.214 45.9151 177.437 46.7851 178.155 47.4079L178.169 47.4126ZM141.368 137.85C141.415 138.411 141.415 138.839 141.491 139.248C142.119 142.656 142.623 146.084 143.322 149.478C143.493 150.31 143.831 150.491 144.596 150.391C145.808 150.234 147.04 150.22 148.247 150.025C151.047 149.569 153.838 149.051 156.629 148.537C156.871 148.494 157.18 148.428 157.014 147.99C156.243 145.946 155.977 143.788 155.711 141.639C155.64 141.078 155.407 140.759 154.812 140.774C154.456 140.783 154.104 140.788 153.748 140.793C150.938 140.826 148.171 140.621 145.471 139.737C144.082 139.281 142.804 138.611 141.373 137.845L141.368 137.85ZM124.557 43.2671C125.722 39.2593 126.545 36.7016 127.771 32.7462C127.966 32.1139 128.009 31.6338 127.41 30.431C126.934 29.4802 126.459 28.5293 125.033 27.5785C124.724 27.3741 124.182 27.7592 124.082 28.0539C123.607 29.4802 123.659 29.9746 123.545 30.992C123.255 33.5449 123.298 36.0931 123.431 38.6461C123.54 40.7141 123.944 41.2751 124.557 43.2671Z" fill="#462700"/>
<path d="M114.902 114.726C115.334 115.819 115.33 117.003 115.591 118.13C116.314 121.229 117.122 124.305 117.992 127.372C119.052 131.118 119.955 134.907 121.073 138.639C121.824 141.159 122.347 143.731 123.098 146.246C123.602 147.933 124.011 149.669 124.258 151.409C124.472 152.897 125.028 154.28 125.313 155.735C125.651 157.456 126.003 159.172 126.407 160.879C126.668 161.986 126.055 162.452 124.885 162.177C124.667 162.124 120.179 161.996 118.135 162.253C116.067 162.514 113.946 162.305 111.854 162.386C108.455 162.519 105.056 162.581 101.657 162.547C99.1705 162.524 96.6746 162.585 94.1977 162.49C90.8413 162.362 87.5135 162.728 84.1761 162.799C81.6326 162.852 79.0797 162.999 76.5457 162.966C72.6997 162.918 68.8679 163.127 65.0266 163.085C63.51 163.07 61.9935 163.218 60.4721 163.275C60.0728 163.289 59.8779 163.465 59.6592 163.807C56.7116 168.39 53.4741 172.778 50.5361 177.375C48.8246 180.047 46.8041 182.519 45.2495 185.3C45.0118 185.724 43.5475 187.758 42.9675 187.321C42.1118 186.679 41.5936 185.728 41.3084 184.778C39.9534 180.29 38.2943 175.902 36.83 171.452C36.1359 169.336 35.4798 167.202 34.7192 165.105C34.491 164.473 34.2153 164.192 33.4546 164.216C30.6687 164.302 27.878 164.164 25.0874 164.344C24.6643 164.373 24.2316 164.411 23.818 164.511C22.4108 164.853 21.5123 164.149 21.0369 162.78C20.7421 161.925 20.2953 161.088 20.0148 160.213C19.178 157.603 18.4269 154.969 17.6139 152.355C16.5443 148.917 15.2654 145.551 14.1102 142.148C13.0548 139.029 11.9518 135.92 11.0295 132.753C10.0835 129.492 9.00427 126.269 7.98214 123.027C7.22148 120.626 6.27066 118.291 5.57181 115.876C5.02034 113.979 9.24198 114.075 10.1548 114.07C12.7648 114.051 15.3748 114.041 17.9848 114.051C22.2967 114.065 26.6039 113.97 30.9112 113.766C36.0979 113.518 41.2941 113.376 46.4856 113.304C49.0338 113.271 51.582 113.071 54.1349 113.09C56.1602 113.105 58.1854 113.205 60.2107 113.2C62.1171 113.195 64.0282 113.086 65.9346 113.043C71.3638 112.924 76.7882 112.824 82.2174 112.701C87.2615 112.587 92.3151 112.568 97.3497 112.297C100.212 112.144 103.078 112.201 105.94 112.083C108.317 111.983 110.709 111.964 113.09 111.873C114.388 111.826 114.716 114.241 114.911 114.731L114.902 114.726ZM122.993 159.277C122.893 157.798 122.527 156.505 122.185 155.221C121.467 152.526 121.082 149.759 120.307 147.078C119.599 144.634 119.185 142.109 118.406 139.68C117.916 138.159 117.383 136.638 117.074 135.073C116.547 132.411 115.677 129.849 114.987 127.239C114.274 124.529 113.461 121.843 112.919 119.09C112.658 117.749 112.249 116.452 111.778 115.168C111.64 114.788 111.427 114.84 111.151 114.84C109.477 114.83 107.799 114.902 106.131 114.964C103.378 115.063 100.62 115.068 97.8679 115.182C92.2723 115.42 86.6625 115.363 81.0621 115.591C77.7152 115.724 74.3684 115.767 71.0262 115.891C66.0915 116.071 61.1425 116.086 56.1982 116.005C50.1272 115.91 44.061 116.181 37.9948 116.399C33.7398 116.551 29.4897 116.718 25.2348 116.832C20.0861 116.97 14.9374 116.86 9.78394 116.813C9.0423 116.808 8.88066 117.022 9.18017 117.745C10.1738 120.141 10.8108 122.66 11.6475 125.109C13.2544 129.815 14.4857 134.641 16.183 139.319C17.5094 142.97 18.7597 146.654 19.9767 150.344C20.8467 152.982 21.5789 155.663 22.4156 158.316C22.6676 159.12 22.7484 160.151 23.3807 160.627C24.2602 161.292 25.3679 161.73 26.5849 161.459C26.9653 161.373 27.3694 161.354 27.7639 161.373C30.2408 161.487 32.7225 161.383 35.1898 161.245C36.1264 161.192 36.5876 161.383 36.8015 162.286C37.2816 164.311 38.0423 166.251 38.6984 168.219C39.5161 170.667 40.3338 173.12 41.161 175.569C41.9169 177.813 42.6871 180.057 43.4572 182.324C44.1038 182.068 44.1989 181.459 44.4984 181.027C47.1797 177.133 49.842 173.23 52.4995 169.327C54.3346 166.631 56.1602 163.936 57.9715 161.226C58.523 160.403 59.122 159.838 60.1869 160.356C60.32 160.422 60.4959 160.418 60.6528 160.418C63.9521 160.351 67.2467 160.128 70.5556 160.166C73.0895 160.194 75.6235 159.952 78.1574 160.023C80.9385 160.104 83.7102 160.113 86.4866 159.937C91.0695 159.652 95.6477 159.628 100.235 159.709C102.822 159.757 105.413 159.685 108.004 159.671C110.357 159.657 112.701 159.462 115.059 159.476C117.669 159.49 120.279 159.353 122.989 159.281L122.993 159.277Z" fill="#C78600"/>
<path d="M125.418 48.2018C128.432 47.232 131.532 46.709 134.669 46.3144C136.248 46.1147 139.395 46.129 139.395 46.129C145.951 46.1195 150.325 48.5441 154.242 51.1161C157.228 53.0747 160.051 55.1856 162.41 57.9097C164.387 60.2011 165.947 62.7446 167.359 65.3926C167.929 66.8806 168.5 68.3734 169.075 69.8615C169.393 71.1165 169.688 72.3764 169.84 73.6647C170.244 77.0306 170.401 80.3918 170.026 83.772C169.821 85.6166 168.5 89.5815 168.495 89.8477V89.8097C167.378 92.3056 166.313 94.8252 164.825 97.1452C163.783 98.7664 162.5 100.193 161.378 101.747C160.394 102.646 159.424 103.568 158.421 104.443C156.424 106.178 154.123 107.438 151.779 108.626C149.944 109.268 148.085 109.82 146.193 110.271C144.363 110.48 142.495 110.376 140.717 110.989C138.824 111.246 137.398 111.246 135.492 111.45C135.107 111.493 134.717 111.541 134.332 111.583C133.785 111.583 132.597 111.022 131.674 111.465C129.568 111.065 127.462 110.68 125.442 109.934C121.634 108.527 118.244 106.459 115.391 103.549C112.106 100.197 109.658 96.2847 107.666 92.0631C106.953 90.5561 106.611 88.9302 106.211 87.328C105.527 84.5659 104.856 81.7943 104.695 78.9323C104.547 76.2985 104.861 73.7075 105.46 71.1451C106.135 68.2641 106.981 65.4544 108.56 62.9157C108.603 62.8492 108.626 62.7731 108.645 62.697C109.843 58.4992 112.72 55.5754 116.057 53.032C118.154 51.4346 120.35 49.9561 122.751 48.8246C123.098 48.6629 124.087 48.4918 125.418 48.2018ZM169.003 79.8403C169.089 77.6867 168.809 75.4523 168.509 73.2179C168.414 72.4857 168.476 71.6347 168.005 71.05C167.401 70.2941 167.192 69.4574 167.035 68.5588C166.84 67.4702 166.479 66.4243 165.999 65.4354C163.322 59.9302 159.305 55.6372 154.114 52.4329C151.689 50.9402 149.127 49.7421 146.469 48.7105C144.192 47.8262 141.881 47.3508 139.447 47.2747C134.974 47.1369 130.657 48.0449 126.345 49.0433C125.898 49.1479 125.413 49.281 125.147 49.7374C124.486 50.8593 123.511 51.5392 122.328 52.1049C120.321 53.0652 118.71 54.6484 116.903 55.9272C115.758 56.7402 114.778 57.7623 113.937 58.8605C112.102 61.2518 110.618 63.8475 109.563 66.7C108.465 69.6713 107.894 72.752 107.5 75.8564C107.233 77.9625 107.466 80.1065 107.937 82.1936C108.636 85.2838 109.192 88.4167 110.457 91.35C111.303 93.3087 112.463 95.0867 113.623 96.86C115.296 99.4129 117.184 101.771 119.675 103.597C121.619 105.018 123.602 106.435 125.908 107.119C129.036 108.046 132.145 109.05 135.463 109.306C140.679 109.715 145.775 109.444 150.719 107.633C152.283 107.062 153.748 106.283 155.102 105.318C155.892 104.757 156.372 103.858 157.28 103.373C158.758 102.574 159.871 101.31 160.988 100.079C163.299 97.5351 164.715 94.4116 166.336 91.4546C168.271 87.9223 169.151 84.0192 168.999 79.8308L169.003 79.8403Z" fill="#2842C6"/>
<path d="M161.373 101.752C162.495 100.197 163.779 98.7711 164.82 97.15C166.308 94.8348 167.378 92.3151 168.495 89.8144C168.538 90.3421 168.785 90.3326 169.198 90.1329C170.03 89.7288 171.081 89.2439 171.984 88.9397C172.06 88.9159 172.141 88.9207 172.208 88.9587C173.097 89.4579 173.644 90.442 173.805 90.6559C176.962 94.811 180.722 98.4289 184.15 102.346C185.638 104.043 187.25 105.612 188.852 107.186C192.194 110.471 195.612 113.685 198.997 116.927C203.361 121.111 208.068 124.89 212.836 128.594C215.308 130.514 217.914 132.254 220.248 134.346C223.538 137.289 227.17 139.818 230.403 142.832C233.055 145.309 235.646 147.852 238.095 150.529C240.372 153.015 242.25 155.83 244.171 158.592C246.31 161.663 248.231 164.877 249.571 168.395C251.055 172.284 252.405 176.22 253.161 180.323C253.741 183.465 253.774 186.655 253.603 189.845C253.417 193.306 252.476 196.62 251.753 199.986C251.031 203.352 249.172 206.104 247.498 208.962C245.216 212.86 242.545 216.487 239.507 219.839C237.125 222.468 234.42 224.745 231.567 226.809C228.097 229.323 224.341 231.43 220.429 233.179C216.126 235.1 211.767 236.892 207.217 238.223C204.017 239.16 200.823 240.11 197.571 240.847C193.711 241.722 189.822 242.459 185.89 242.991C181.307 243.614 176.705 243.885 172.098 243.966C169.141 244.018 166.165 244.033 163.208 243.486C162.257 243.31 161.221 243.353 160.227 243.286C157.732 243.12 155.283 242.692 152.906 241.974C150.615 241.28 148.285 240.752 145.97 240.163C143.555 239.55 141.287 238.57 138.991 237.653C135.815 236.379 132.734 234.891 129.559 233.602C128.38 233.122 127.182 232.58 126.131 231.81C126.288 231.824 126.45 231.81 126.597 231.857C128.28 232.418 129.987 232.799 131.755 233.032C132.967 233.193 134.189 233.198 135.397 233.312C137.394 233.507 139.419 233.364 141.686 233.364C140.874 232.894 140.298 232.561 139.723 232.228C136.352 230.265 132.806 228.577 129.787 226.062C126.573 223.381 123.388 220.652 120.754 217.372C119.081 215.285 117.455 213.145 116.185 210.768C115.953 210.331 115.482 209.808 115.853 209.361C116.185 208.962 116.813 209.176 117.312 209.271C120.478 209.865 123.611 210.602 126.749 211.315C130.609 212.19 134.508 212.917 138.387 213.711C139.119 213.858 139.842 214.03 140.574 214.191C141.249 214.339 141.929 214.486 142.661 214.643C134.465 209.561 127.329 203.423 121.211 196.111C121.301 195.973 121.429 195.912 121.596 195.874C123.611 195.422 125.675 195.598 127.714 195.455C130.182 195.279 132.663 195.641 135.131 195.859C138.083 196.121 140.959 196.677 143.759 197.642C144.354 197.847 144.943 198.118 145.556 198.227C150.296 199.054 154.851 200.58 159.434 201.968C165.048 203.666 170.444 206.028 176.092 207.65C180.855 209.019 185.643 210.088 190.663 209.903C194.295 209.77 197.927 209.789 201.56 209.917C203.39 209.984 205.139 209.689 206.889 209.271C211.862 208.073 216.749 206.594 221.598 204.954C225.13 203.756 228.411 202.23 230.712 199.159C231.634 197.927 232.932 196.839 233.645 195.617C234.834 195.412 236.036 194.932 237.211 194.462C237.876 194.195 238.789 193.211 238.637 193.035C238.423 192.783 236.64 193.787 235.784 193.986C231.953 194.88 227.95 195.693 223.97 195.569C220.994 195.474 218.099 194.899 215.266 194.005C214.215 193.672 211.034 191.923 210.407 191.6C206.651 189.67 202.943 187.668 199.667 184.963C200.789 184.198 201.355 183.009 202.011 181.892C204.326 177.965 204.536 173.596 204.317 169.241C204.222 167.335 204.217 165.405 203.998 163.479C203.675 160.608 202.991 157.85 202.182 155.102C200.599 149.697 198.061 144.71 195.355 139.809C194.809 138.815 194.329 137.76 193.473 136.966C193.839 136.918 194.257 137.156 194.585 136.775C194.533 136.333 194.157 136.138 193.891 135.867C190.516 132.478 186.884 129.378 183.299 126.221C179.657 123.017 175.826 120.046 172.075 116.979C171.072 116.157 170.125 115.268 169.013 114.569C166.945 113.266 164.768 112.168 162.585 111.075C162.947 110.728 162.733 110.371 162.647 109.986C162.039 107.276 161.592 104.538 161.349 101.771L161.373 101.752Z" fill="#FE7E19"/>
<path d="M193.497 136.947C194.352 137.74 194.832 138.801 195.379 139.789C198.084 144.696 200.618 149.678 202.206 155.083C203.009 157.831 203.694 160.589 204.022 163.46C204.241 165.381 204.246 167.311 204.341 169.222C204.559 173.577 204.345 177.941 202.035 181.873C201.379 182.985 200.813 184.178 199.691 184.944C197.276 183.294 195.175 181.269 193.04 179.296C190.145 176.619 187.069 174.157 184.107 171.561C181.445 169.222 178.669 167.035 175.574 165.286C174.994 164.958 174.328 164.787 173.838 164.306C174.143 164.012 173.848 163.807 173.715 163.593C169.251 156.486 165.238 149.146 162.129 141.33C161.81 140.531 161.297 139.999 160.384 139.965C160.432 139.595 160.313 139.328 159.904 139.309C159.353 139.29 158.787 139.224 158.25 139.309C154.779 139.847 151.313 139.713 147.886 139.081C144.111 138.382 141.03 136.462 138.506 133.509C136.856 131.579 135.487 129.611 135.169 127.015C135.088 126.35 135.221 126.05 135.768 125.679C137.717 124.367 139.904 123.963 142.181 123.858C142.98 123.825 143.769 123.792 144.425 123.259C144.577 123.136 144.729 122.993 144.686 122.765C144.643 122.523 144.449 122.432 144.249 122.461C141.848 122.846 139.352 122.603 137.051 123.635C136.214 124.011 135.459 124.51 134.569 125.042C134.389 124.011 134.465 123.022 134.569 122.071C134.717 120.745 134.902 119.413 135.292 118.12C135.478 117.498 135.839 117.136 136.462 116.922C138.767 116.133 141.03 115.149 143.569 115.681C143.75 115.719 143.973 115.681 144.149 115.61C144.534 115.458 145.076 115.563 145.005 115.03C144.943 114.559 144.449 114.617 144.078 114.559C141.762 114.198 139.528 114.502 137.36 115.372C137.179 115.444 136.994 115.525 136.676 115.42C136.78 114.926 137.046 114.54 137.431 114.217C138.953 112.938 140.688 111.954 142.533 111.336C143.693 110.946 144.986 110.842 146.193 110.466C146.35 110.447 146.512 110.447 146.659 110.409C149.535 109.701 152.426 109.648 155.335 110.181C161.91 111.384 167.544 114.536 172.74 118.586C173.919 119.504 174.984 120.569 176.116 121.548C180.176 125.061 184.274 128.527 188.248 132.14C190.002 133.733 191.633 135.463 193.501 136.928L193.497 136.947Z" fill="#FEAD3B"/>
<path d="M74.3636 211.367C74.0926 211.42 73.8216 211.448 73.5316 211.206C75.3096 208.976 77.0877 206.741 78.8705 204.517C80.5867 202.368 82.3124 200.228 84.1856 198.208C86.2774 195.95 88.5213 193.858 90.8413 191.842C93.1375 189.845 95.5098 187.944 97.9297 186.099C98.8329 185.41 99.8265 184.835 100.773 184.198C101.338 183.817 101.766 183.309 102.104 182.719C102.375 182.248 102.503 181.859 102.061 181.364C101.671 180.931 99.4747 181.055 98.7426 181.126C96.5605 181.34 94.4734 181.954 92.2247 182.462C93.6415 181.065 95.2198 180.052 96.7411 178.982C99.1372 177.299 101.557 175.645 104.167 174.3C106.596 173.049 109.03 171.808 111.617 170.9C113.466 170.254 115.292 169.522 117.174 169.003C121.025 167.943 124.904 166.954 128.903 166.574C131.061 166.37 133.219 166.127 135.378 165.923C135.806 165.885 139.366 165.647 139.718 165.647C142.09 165.647 144.468 165.552 146.83 165.671C149.745 165.813 152.616 166.294 155.407 167.211C156.752 167.653 158.15 167.943 159.514 168.328C159.838 168.419 160.147 168.371 160.451 168.328C161.592 168.171 161.768 167.862 161.288 166.84C160.456 165.067 159.181 163.627 157.779 162.295C156.99 161.544 156.229 160.76 155.174 160.099C156.224 159.766 157.09 160.099 157.936 160.237C166.893 161.692 174.832 165.376 181.778 171.195C185.581 174.38 189.375 177.575 193.035 180.927C192.398 181.264 192.013 180.703 191.562 180.475C189.242 179.296 187.055 177.846 184.449 177.271C178.854 176.03 173.192 175.697 167.482 175.935C167.126 175.949 166.779 175.982 166.427 176.277C169.702 179.191 172.926 182.149 176.249 184.982C179.61 187.849 182.481 191.143 185.272 194.585C184.953 194.704 184.782 194.595 184.597 194.528C180.418 193.054 176.154 191.88 171.813 190.996C166.393 189.893 160.926 189.118 155.407 188.695C153.31 188.533 151.209 188.614 149.127 188.41C147.41 188.243 145.704 188.353 144.049 188.609C141.011 189.085 137.997 189.76 135.007 190.473C132.592 191.048 130.096 191.333 127.8 192.365C125.603 193.354 123.416 194.362 121.22 195.36C120.621 195.503 120.165 195.916 119.466 195.945C118.177 196.002 116.899 196.292 115.629 196.587C111.859 197.457 108.132 198.531 104.538 199.896C100.373 201.483 96.5082 203.765 92.9093 206.451C92.3769 206.851 91.8682 207.331 91.0837 207.512C91.2882 206.157 91.7065 205.063 92.3056 204.036C92.8951 203.024 93.5131 202.03 94.1454 200.98C93.6367 200.837 93.2992 201.089 92.9616 201.236C88.5546 203.195 84.1808 205.234 80.078 207.792C78.1716 208.981 76.1321 209.955 74.3588 211.362L74.3636 211.367Z" fill="#FEF9DF"/>
<path d="M121.22 195.365C123.412 194.367 125.598 193.354 127.8 192.37C143.578 186.836 157.365 187.787 171.818 190.991C176.158 191.875 180.423 193.05 184.602 194.523C184.787 194.59 184.958 194.699 185.277 194.58C182.491 191.139 179.615 187.844 176.253 184.977C172.93 182.144 169.712 179.187 166.431 176.272C166.783 175.982 167.13 175.949 167.487 175.93C173.197 175.692 178.859 176.025 184.454 177.266C187.059 177.846 189.242 179.291 191.566 180.47C192.018 180.699 192.403 181.26 193.04 180.922C196.173 183.751 199.363 186.513 202.962 188.752C204.402 189.646 205.871 190.487 207.34 191.338C207.64 191.509 214.319 195.16 218.688 195.864C223.309 196.929 228.026 196.929 232.613 195.779C232.956 195.693 233.312 195.655 233.664 195.593C232.941 196.981 231.653 197.904 230.731 199.135C228.43 202.211 225.149 203.732 221.617 204.93C216.773 206.57 211.885 208.054 206.908 209.247C187.787 212.974 180.66 208.933 176.111 207.63C170.463 206.009 165.067 203.647 159.452 201.949C154.869 200.566 138.102 196.107 135.149 195.845C132.677 195.626 130.2 195.265 127.733 195.441C125.698 195.588 123.63 195.412 121.615 195.859C121.448 195.897 121.32 195.954 121.229 196.097C120.811 195.855 121.196 195.607 121.22 195.36V195.365Z" fill="#FEAD3B"/>
<path d="M121.22 195.365C121.196 195.612 120.811 195.859 121.23 196.102C127.353 203.418 134.489 209.551 142.68 214.633C141.948 214.476 141.273 214.329 140.593 214.182C139.866 214.025 130.633 212.18 126.773 211.305C123.63 210.597 120.502 209.855 117.336 209.261C116.837 209.166 116.209 208.952 115.876 209.351C115.506 209.798 115.972 210.321 116.209 210.759C117.479 213.136 119.1 215.27 120.778 217.362C123.412 220.642 126.597 223.371 129.811 226.053C132.83 228.572 136.376 230.26 139.747 232.219C140.322 232.551 140.897 232.884 141.71 233.355C139.443 233.355 137.413 233.498 135.421 233.303C134.213 233.184 132.991 233.179 131.779 233.022C130.01 232.789 128.304 232.414 126.621 231.848C126.478 231.8 126.312 231.815 126.155 231.8C124.643 231.249 123.15 230.65 121.871 229.642C120.906 228.886 119.799 228.368 118.729 227.812C114.669 225.701 110.609 223.585 106.473 221.627C103.031 220.001 99.6174 218.308 96.0804 216.887C92.0394 215.261 87.9461 213.782 83.7578 212.599C81.5661 211.98 79.2889 211.786 77.0069 211.71C76.1179 211.681 75.2289 211.619 74.3684 211.353C76.1369 209.946 78.1812 208.971 80.0876 207.783C84.1904 205.23 93.6463 200.827 94.155 200.97C93.5227 202.021 91.2978 206.152 91.0933 207.502C91.8778 207.317 92.3864 206.841 92.9189 206.442C96.513 203.756 100.378 201.474 104.547 199.886C108.142 198.517 111.869 197.442 115.639 196.577C116.908 196.282 120.631 195.493 121.23 195.351L121.22 195.365Z" fill="#FEB45C"/>
<path d="M167.358 65.3926C165.947 62.7398 164.387 60.1964 162.409 57.9097C160.056 55.1856 157.227 53.0795 154.242 51.1161C150.325 48.5441 145 46.5949 139.395 46.129C137.821 46.072 136.248 46.1147 134.669 46.3144C131.532 46.709 128.432 47.232 125.418 48.2018C124.919 47.6313 125.166 46.9847 125.313 46.4C126.012 43.6093 126.749 40.8282 127.495 38.0518C127.809 36.8728 128.085 35.6795 128.494 34.5243C129.787 30.431 131.18 26.6229 132.164 23.7752C133.177 20.8515 135.867 13.2592 136.39 13.2877C136.913 13.3162 137.95 15.2511 138.344 16.1687C140.175 20.4521 141.225 24.8782 142.761 29.2805C144.002 32.8508 145.067 36.4782 146.26 40.0628C146.902 41.3654 153.082 41.8408 153.686 40.7426C154.508 37.0867 156.514 33.1313 157.955 29.3423C159.101 26.3187 160.161 23.2618 161.416 20.2762C162.319 18.1226 164.249 13.5016 164.221 13.302L164.23 13.2829C164.539 13.1926 164.658 13.2116 164.753 13.6205C165.224 15.622 165.238 17.6757 165.405 19.701C165.642 22.677 165.88 25.6531 166.141 28.6244C166.431 31.957 166.336 35.3134 166.617 38.6556C166.802 40.8947 166.569 43.1434 166.831 45.3969C167.083 47.5838 167.007 49.8087 167.049 52.0098C167.126 56.2743 167.506 60.5292 167.358 64.7983C167.354 64.998 167.363 65.1929 167.368 65.3926H167.358Z" fill="#FEAD3B"/>
<path d="M167.359 65.3926C167.359 65.1929 167.34 64.998 167.349 64.7983C167.496 60.5292 167.121 56.2742 167.04 52.0098C167.002 49.8087 167.078 47.579 166.821 45.3969C166.56 43.1434 166.798 40.8947 166.607 38.6556C166.327 35.3182 166.422 31.9618 166.132 28.6244C165.875 25.6483 165.638 22.677 165.395 19.701C165.233 17.6757 165.214 15.622 164.744 13.6205C164.649 13.2116 164.53 13.1926 164.221 13.2829C164.23 13.2021 164.235 13.126 164.249 13.0452C164.373 12.4272 164.701 11.6285 165.119 11.5192C165.69 11.3718 166.151 12.3987 166.384 12.836C167.977 15.8216 168.828 18.8405 169.931 22.04C170.325 23.1905 170.762 24.3267 171.11 25.4915C171.285 26.0857 172.284 28.2964 172.141 28.4723C170.905 29.9793 171.133 31.6195 171.514 33.3738C172.678 38.7792 174.88 43.7852 177.195 48.758C177.328 49.048 178.293 49.6708 178.749 48.9767C179.439 47.9165 179.89 47.0323 180.542 45.7106C182.082 50.4029 183.974 54.6911 185.876 58.9793C187.359 62.3215 188.448 65.8157 189.598 69.2815C189.689 69.5477 189.774 69.8092 189.722 70.0944C188.538 70.0944 187.34 70.2323 186.18 70.0706C183.537 69.7093 180.87 69.638 178.217 69.4479C175.978 69.291 173.72 69.4193 171.471 69.4051C170.634 69.4003 169.835 69.5477 169.065 69.8662C168.495 68.3782 167.924 66.8854 167.349 65.3974L167.359 65.3926Z" fill="#FE7F19"/>
<path d="M160.375 139.97C161.288 140.003 161.801 140.536 162.12 141.335C165.229 149.146 169.241 156.491 173.705 163.598C173.838 163.812 174.133 164.012 173.829 164.311C170.221 162.533 166.56 160.85 162.619 159.961C159.429 159.239 156.215 158.506 152.897 159.039C152.744 159.063 152.592 159.096 152.44 159.129C152.355 159.628 152.454 160.032 152.92 160.251C155.801 161.578 157.808 163.883 159.742 166.275C160.009 166.603 160.265 166.935 160.608 167.373C158.901 166.931 157.285 166.607 155.735 166.08C153.443 165.305 151.081 164.929 148.708 164.634C145.884 164.283 143.037 164.535 140.198 164.497C139.666 164.487 139.371 164.42 139.205 163.812C138.644 161.763 138.012 159.738 137.698 157.627C137.384 155.507 137.046 153.391 136.756 151.271C136.452 149.022 136.205 146.764 135.92 144.51C135.459 140.816 135.188 137.108 134.945 133.395C134.888 132.516 134.641 131.636 134.826 130.666C136.024 132.592 137.303 134.384 139.015 135.782C140.008 136.595 140.046 137.717 140.217 138.763C140.726 141.915 141.268 145.062 141.834 148.209C142.024 149.264 142.604 150.215 142.537 151.342C142.509 151.784 143.003 151.665 143.293 151.637C145.994 151.38 148.713 151.351 151.38 150.733C153.063 150.344 154.789 150.111 156.486 149.773C157.66 149.54 158.074 149.06 157.917 147.924C157.594 145.561 157.209 143.203 156.543 140.835C157.841 140.812 159.105 140.403 160.365 139.98L160.375 139.97Z" fill="#FEF9DF"/>
<path d="M169.07 69.8615C169.84 69.5429 170.639 69.3956 171.476 69.4003C173.724 69.4146 175.982 69.2815 178.222 69.4431C180.874 69.6333 183.541 69.6998 186.185 70.0659C187.345 70.2228 188.548 70.0897 189.727 70.0897H189.712C189.712 70.2228 189.774 70.3083 189.902 70.3369C190.24 70.8075 190.259 71.1165 189.769 71.6205C187.763 73.6742 185.51 75.4428 183.446 77.43C181.502 79.3031 179.629 81.2713 177.49 82.9352C176.068 84.0429 174.837 85.3836 173.349 86.4105C172.469 87.019 172.593 88.0697 172.103 88.9064C171.176 89.2011 170.073 89.7146 169.203 90.1377C168.79 90.3374 168.547 90.3469 168.5 89.8192V89.8572C168.5 89.8572 169.821 85.626 170.026 83.7815C170.401 80.4013 170.244 77.0354 169.84 73.6742C169.683 72.3859 169.393 71.126 169.075 69.871L169.07 69.8615Z" fill="#FEB45C"/>
<path d="M178.169 47.4079C177.451 46.7898 177.228 45.9151 176.881 45.1307C175.003 40.9185 173.458 36.5875 172.422 32.0854C172.322 31.648 172.236 31.1584 172.422 30.8018C173.044 29.5705 174.899 25.2443 175.431 24.2459C176.857 21.3934 177.808 19.4918 178.759 19.9672C179.71 20.4426 178.806 25.3916 178.759 27.0984C178.74 27.802 177.903 31.919 178.022 32.808C178.759 34.2295 181.131 29.7749 182.087 28.5246C183.038 27.5738 183.318 27.9113 183.513 28.0492C184.259 28.5721 184.497 30.6021 184.464 31.3771C184.34 34.2628 183.095 36.4972 182.115 39.2118C181.198 41.76 180.042 44.1846 178.74 46.5474C178.573 46.8469 178.364 47.1226 178.174 47.4079H178.169Z" fill="#FEF9DF"/>
<path d="M141.368 137.845C142.799 138.606 144.073 139.281 145.466 139.737C148.166 140.621 150.933 140.826 153.743 140.793C154.099 140.793 154.451 140.783 154.808 140.774C155.402 140.759 155.635 141.078 155.706 141.639C155.977 143.788 156.239 145.946 157.009 147.99C157.175 148.428 156.866 148.494 156.624 148.537C153.833 149.05 151.043 149.569 148.242 150.025C147.04 150.22 145.803 150.23 144.591 150.391C143.831 150.491 143.488 150.31 143.317 149.478C142.618 146.084 142.114 142.656 141.487 139.248C141.411 138.834 141.411 138.406 141.363 137.85L141.368 137.845Z" fill="#3355FE"/>
<path d="M193.497 136.947C191.628 135.482 189.993 133.752 188.243 132.159C184.269 128.546 180.171 125.08 176.111 121.567C174.979 120.588 173.914 119.523 172.735 118.605C167.544 114.555 161.906 111.403 155.331 110.2C152.421 109.668 149.531 109.72 146.654 110.428C146.502 110.466 146.341 110.466 146.188 110.485C146.188 110.414 146.188 110.343 146.188 110.271C148.081 109.82 149.939 109.268 151.775 108.626C152.944 108.75 154.114 108.85 155.278 109.007C157.817 109.349 160.204 110.252 162.614 111.056C164.796 112.149 166.969 113.243 169.041 114.55C170.154 115.249 171.095 116.143 172.103 116.96C175.854 120.027 179.686 122.998 183.327 126.202C186.912 129.359 190.544 132.459 193.92 135.848C194.186 136.115 194.561 136.314 194.614 136.756C194.286 137.141 193.867 136.899 193.501 136.947H193.497Z" fill="#492901"/>
<path d="M124.657 43.9516C124.567 44.2559 124.144 44.2892 124.02 43.9992C122.689 40.9328 122.87 33.7161 123.131 31.377C123.245 30.3597 123.607 28.0492 124.557 27.5738C125.903 26.9034 128.08 31.2202 127.885 31.8525C126.934 36.1311 125.789 40.1008 124.657 43.9516Z" fill="#FDF8DE"/>
<path d="M134.327 111.583C134.712 111.541 135.102 111.493 135.487 111.45C136.286 111.731 137.113 111.992 136.951 113.119C135.673 114.208 135.059 115.762 134.113 117.122C134.227 115.605 134.289 111.94 134.327 111.588V111.583Z" fill="#FCF7DE"/>
<path d="M136.956 113.114C137.118 111.988 136.291 111.731 135.492 111.446C137.398 111.241 138.824 111.241 140.717 110.984C139.4 111.579 138.083 112.173 136.961 113.109L136.956 113.114Z" fill="#3556FB"/>
<path d="M189.902 70.3321C189.774 70.2988 189.717 70.218 189.712 70.0897C189.85 70.1134 189.907 70.199 189.902 70.3321Z" fill="#FE7F19"/>
<path d="M122.993 159.277C120.283 159.348 117.669 159.486 115.063 159.471C112.705 159.457 110.362 159.652 108.008 159.666C105.417 159.681 102.826 159.752 100.24 159.704C95.6525 159.619 91.0695 159.643 86.4913 159.933C83.7197 160.104 80.9433 160.094 78.1621 160.018C75.6329 159.947 73.0943 160.189 70.5603 160.161C67.2562 160.123 63.9616 160.351 60.6575 160.413C60.5006 160.413 60.3247 160.413 60.1916 160.351C59.1315 159.833 58.5277 160.399 57.9762 161.221C56.1649 163.931 54.3393 166.631 52.5042 169.322C49.8467 173.23 47.1844 177.133 44.5031 181.022C44.2036 181.454 44.1133 182.063 43.462 182.32C42.6918 180.047 41.9216 177.808 41.1657 175.564C40.3385 173.116 39.5208 170.667 38.7031 168.214C38.047 166.246 37.2864 164.306 36.8062 162.281C36.5923 161.378 36.1311 161.188 35.1946 161.24C32.7224 161.378 30.2456 161.482 27.7687 161.368C27.3788 161.349 26.97 161.368 26.5897 161.454C25.3726 161.725 24.2649 161.288 23.3854 160.622C22.7531 160.142 22.677 159.115 22.4203 158.311C21.5836 155.663 20.8467 152.977 19.9815 150.339C18.7644 146.65 17.5141 142.965 16.1877 139.314C14.4905 134.636 13.2592 129.811 11.6523 125.104C10.8156 122.656 10.1785 120.141 9.18491 117.74C8.8854 117.017 9.04704 116.799 9.78868 116.808C14.9374 116.856 20.0908 116.965 25.2395 116.827C29.4944 116.713 33.7446 116.547 37.9995 116.395C44.0657 116.176 50.132 115.905 56.2029 116C61.1472 116.076 66.0962 116.062 71.031 115.886C74.3731 115.762 77.7247 115.724 81.0669 115.586C86.6672 115.363 92.277 115.415 97.8726 115.178C100.625 115.063 103.383 115.059 106.135 114.959C107.804 114.897 109.482 114.826 111.156 114.835C111.431 114.835 111.645 114.783 111.783 115.163C112.249 116.447 112.658 117.74 112.924 119.085C113.466 121.838 114.274 124.524 114.992 127.234C115.681 129.849 116.551 132.411 117.079 135.069C117.388 136.633 117.925 138.154 118.41 139.675C119.19 142.105 119.604 144.629 120.312 147.073C121.087 149.754 121.472 152.521 122.19 155.217C122.532 156.5 122.898 157.793 122.998 159.272L122.993 159.277Z" fill="#F6F0E9"/>
<path d="M169.003 79.8403C169.151 84.0287 168.271 87.9318 166.341 91.4641C164.725 94.4211 163.303 97.5446 160.993 100.088C159.876 101.319 155.896 104.761 155.107 105.327C153.752 106.292 152.288 107.072 150.724 107.642C145.775 109.454 140.683 109.725 135.468 109.316C132.15 109.059 129.04 108.056 125.912 107.129C123.611 106.444 121.624 105.028 119.68 103.606C117.189 101.78 115.301 99.4272 113.628 96.8695C112.463 95.0962 111.303 93.3182 110.461 91.3595C109.197 88.4214 106.972 83.2015 107.504 75.8659C107.899 72.7614 108.47 69.6808 109.568 66.7095C110.623 63.857 112.102 61.2613 113.941 58.87C118.382 53.2459 121.71 51.3442 126.35 49.048C130.662 48.0496 134.978 47.1416 139.452 47.2795C141.886 47.3555 144.197 47.831 146.474 48.7152C149.131 49.7469 151.699 50.9401 154.118 52.4377C159.315 55.6419 163.327 59.9349 166.004 65.4401C167.824 68.459 168.419 72.4905 168.514 73.2178C168.809 75.4475 169.094 77.6867 169.008 79.8403H169.003ZM114.55 84.138C114.265 84.8036 114.327 85.531 114.231 86.2251C113.808 89.3295 114.051 92.3911 115.353 95.2626C116.266 97.2688 117.222 99.3226 119.475 100.349C119.333 99.9834 119.114 99.7172 119.047 99.3559C118.99 99.0326 118.724 98.7378 118.52 98.4526C116.238 95.2293 114.949 91.716 115.32 87.7036C115.391 87.7987 115.491 87.8795 115.529 87.9841C116.998 91.8159 119.342 95.0249 122.361 97.7918C123.982 99.2798 125.889 99.798 127.995 99.817C128.76 99.8218 129.468 99.4795 130.091 99.0659C131.256 98.2862 131.356 97.2546 130.386 96.2942C130.01 95.9282 129.692 95.5146 129.464 95.0677C128.755 93.6937 127.828 92.4624 127.015 91.1551C126.668 90.5941 125.984 89.377 125.508 88.1837C125.033 86.9905 124.866 84.8083 124.505 83.1301C123.968 80.6342 123.725 78.1336 124.267 75.6044C124.339 75.2716 124.434 74.896 124.077 74.6298C125.908 73.4223 128.009 73.0419 130.11 72.7805C134.17 72.2813 138.03 73.1751 141.786 74.6726C144.529 75.7708 146.631 77.5441 148.128 80.1113C149.093 81.761 149.692 83.5295 150.258 85.3313C151.128 88.0887 150.938 90.8746 150.439 93.6224C149.835 96.9503 148.323 99.8408 145.746 102.161C142.989 104.642 139.804 106.107 136.172 106.668C135.82 106.72 135.478 106.71 135.382 107.191C135.91 107.386 136.409 107.452 136.923 107.424C140.593 107.214 143.65 105.569 146.36 103.24C149.241 100.763 150.971 97.5541 151.613 93.8364C152.107 90.9744 152.302 88.0696 151.594 85.1934C151.176 83.501 150.443 81.9273 149.759 80.3347C149.992 80.2967 150.225 80.2729 150.453 80.2159C153.477 79.4933 156.495 78.7516 159.647 78.8847C160.608 78.9275 161.578 78.8562 162.552 78.956C163.327 79.0321 164.007 78.4426 164.012 77.6629C164.012 75.8706 163.964 74.1401 163.574 72.4239C162.928 69.581 161.416 67.1136 160.189 64.5321C159.362 62.7969 157.855 61.5798 156.457 60.3057C155.697 59.6116 155.017 58.851 154.228 58.1759C152.768 56.9303 151.009 56.1839 149.44 55.138C146.041 52.8751 142.262 52.0003 138.268 51.8054C136.452 51.7151 134.66 51.9337 132.863 52.2475C127.947 53.1128 123.687 55.2616 120.003 58.599C118.234 60.1964 116.841 62.1265 115.263 63.8903C113.48 65.8775 112.377 68.2688 111.645 70.8598C111.051 72.9611 110.79 75.0957 110.571 77.2398C110.381 79.0844 110.58 80.9385 110.98 82.7593C111.037 83.0303 111.003 83.2585 111.417 83.3013C112.396 83.4011 113.366 83.5913 114.317 83.1634C114.388 83.4819 114.203 83.8623 114.55 84.1142V84.138ZM125.518 74.5442C124.652 75.2859 124.572 75.8944 125.313 76.7549C126.24 77.8388 127.491 78.4141 128.822 78.8324C128.969 78.88 129.136 78.8942 129.288 78.8752C131.118 78.6328 133.566 76.1036 133.799 74.2875C133.861 73.8264 133.652 73.7265 133.305 73.698C132.487 73.6267 126.007 74.1259 125.518 74.5442Z" fill="#D2F3F2"/>
<path d="M162.614 111.056C160.204 110.252 157.817 109.354 155.278 109.007C154.114 108.85 152.944 108.75 151.775 108.626C154.118 107.438 156.419 106.178 158.416 104.443C159.424 103.568 160.389 102.646 161.373 101.747C161.616 104.514 162.067 107.252 162.671 109.962C162.757 110.347 162.971 110.704 162.609 111.051L162.614 111.056Z" fill="#FEB45C"/>
<path d="M114.317 83.1872C113.366 83.6151 112.396 83.4297 111.417 83.3251C111.008 83.2823 111.041 83.0541 110.98 82.7831C110.58 80.9623 110.381 79.1082 110.571 77.2636C110.789 75.1195 111.051 72.9849 111.645 70.8836C112.377 68.2926 113.48 65.9061 115.263 63.9141C116.841 62.1503 118.239 60.2202 120.003 58.6228C123.692 55.2854 127.947 53.1366 132.863 52.2713C134.66 51.9575 136.452 51.7389 138.268 51.8292C142.262 52.0241 146.041 52.8989 149.44 55.1618C151.009 56.2077 152.768 56.9493 154.228 58.1997C155.012 58.87 155.697 59.6354 156.457 60.3295C157.855 61.6036 159.362 62.8159 160.189 64.5559C161.416 67.1421 162.928 69.6048 163.574 72.4477C163.964 74.1687 164.016 75.8992 164.012 77.6915C164.012 78.4711 163.332 79.0559 162.557 78.9798C161.577 78.88 160.608 78.9513 159.643 78.9085C156.491 78.7707 153.472 79.5171 150.448 80.2397C150.22 80.292 149.982 80.3205 149.754 80.3585C148.741 78.918 147.928 77.3207 146.493 76.213C146.117 75.9277 145.585 75.6615 145.471 75.2812C145.371 74.9436 145.808 74.511 146.084 74.1544C146.155 74.0593 146.188 73.9452 146.188 73.8264C146.188 71.6633 146.293 69.4859 144.862 67.6175C144.467 67.1041 144.135 66.5336 143.384 66.6382C142.594 66.7475 142.024 67.1564 141.686 67.9266C140.921 69.6903 140.726 71.4541 141.667 73.313C139.509 72.6569 137.541 71.8392 135.406 71.668C133.262 71.4969 131.118 71.2211 128.979 71.7251C127.453 72.0816 125.979 73.2226 125.979 71.7964C125.979 71.5254 127.044 69.9423 127.096 69.8234C127.667 68.5589 128.408 67.3989 129.345 66.3625C129.768 65.8918 129.844 65.3403 129.687 64.7033C128.888 61.5038 125.289 60.087 122.19 61.9792C118.377 64.3087 116.028 67.7839 114.802 72.0484C113.742 75.728 113.96 79.46 114.317 83.1967V83.1872Z" fill="#D2E0B2"/>
<path d="M124.082 74.6346C118.814 77.4157 115.758 81.6801 115.33 87.7036C114.954 91.716 116.247 95.2293 118.529 98.4526C118.61 98.5667 118.753 98.8282 118.91 99.1324C119.104 99.5175 118.643 99.9026 118.301 99.6364C116.856 98.5192 116.095 96.8743 115.363 95.2626C114.06 92.3911 113.813 89.3295 114.241 86.2251C114.336 85.531 114.27 84.8036 114.56 84.138C114.659 83.4629 115.063 82.9067 115.282 82.2744C115.829 80.7008 116.727 79.3839 117.873 78.1431C119.076 76.8357 120.207 75.4808 121.724 74.53C122.299 74.1734 122.47 73.8787 122.237 73.1418C121.738 71.5634 121.781 69.9375 122.67 68.4685C123.255 67.5034 124.462 67.3323 125.299 68.0739C125.855 68.5683 126.359 69.1293 126.507 69.909C126.507 69.947 126.953 71.3115 126.478 72.2623C126.478 72.2623 127.819 71.9961 129.002 71.7156C131.142 71.2116 133.286 71.4874 135.43 71.6585C137.56 71.8297 139.528 72.6474 141.691 73.3034C140.75 71.4446 140.94 69.6808 141.71 67.917C142.048 67.1469 142.618 66.738 143.407 66.6287C144.159 66.5241 144.629 66.9947 145.024 67.5082C147.539 71.687 145.975 74.6393 145.494 75.2716C145.609 75.652 146.146 75.9134 146.517 76.2034C147.957 77.3111 148.765 78.9085 149.778 80.349C150.462 81.9416 151.199 83.5152 151.613 85.2077C152.321 88.0839 152.126 90.9887 151.632 93.8506C150.99 97.5731 149.264 100.777 146.379 103.254C143.669 105.584 140.612 107.229 136.942 107.438C136.433 107.466 135.934 107.4 135.401 107.205C135.031 106.492 135.834 106.734 136.191 106.682C139.823 106.121 143.013 104.657 145.765 102.175C148.342 99.8551 149.854 96.9646 150.458 93.6367C150.957 90.8888 151.147 88.1029 150.277 85.3456C149.707 83.5438 149.108 81.7752 148.147 80.1256C146.65 77.5583 144.548 75.7803 141.805 74.6869C138.05 73.1846 134.189 72.2956 130.129 72.7947C128.028 73.0515 125.922 73.4365 124.096 74.6441L124.082 74.6346Z" fill="#2E7295"/>
<path d="M133.305 73.698C133.657 73.698 133.861 73.8264 133.799 74.2875C133.566 76.1084 131.118 78.6328 129.288 78.8753C129.136 78.8943 128.969 78.8753 128.822 78.8325C127.491 78.4141 126.245 77.8341 125.313 76.7549C124.572 75.8897 124.648 75.2859 125.518 74.5443C126.007 74.1259 128.194 73.7551 128.836 73.6885C130.048 73.5649 131.688 73.6885 133.305 73.698Z" fill="#2E7295"/>
<path d="M121.638 86.5198C122.237 87.4374 123.046 89.2392 127.41 88.9016C132.135 88.9016 133.571 89.8382 139.652 86.1205C139.728 86.0729 139.809 86.0159 139.875 85.9541C143.583 82.6975 143.574 81.2903 144.525 81.7657C145.475 82.2411 143.098 85.0936 141.197 86.5198C139.295 87.9461 134.051 91.4403 128.589 90.0521C128.156 89.9428 127.7 89.9285 127.263 90.0189C126.374 90.2043 124.629 90.3564 122.656 89.3675C120.973 88.5261 120.616 87.5229 120.602 86.8384C120.593 86.2631 121.32 86.0349 121.634 86.5151L121.638 86.5198Z" fill="#307496"/>
<path d="M110.771 145.238C111.07 145.385 111.37 145.528 111.688 145.685C111.626 146.54 110.989 146.421 110.466 146.421C108.251 146.431 106.031 146.421 103.811 146.421C102.185 146.421 100.563 146.421 98.9376 146.431C87.8177 146.507 76.6979 146.616 65.5733 146.645C60.3533 146.659 55.1333 146.45 49.9181 146.474C46.9277 146.488 43.9231 146.616 40.9471 146.94C37.1058 147.358 33.293 146.859 29.4707 146.902C29.233 146.902 28.9953 146.906 28.7576 146.911V146.198C29.4184 146.117 30.0745 145.994 30.7353 145.97C31.6433 145.932 32.5513 145.97 33.4641 145.97C35.9933 145.965 38.5272 146.008 41.0564 145.927C44.1228 145.832 47.1892 145.58 50.2556 145.499C53.0605 145.423 55.8702 145.485 58.6751 145.461C59.084 145.461 59.4928 145.323 59.9017 145.247C60.3771 145.247 60.8525 145.247 61.3279 145.247C61.3802 145.304 61.4277 145.409 61.48 145.414C63.3627 145.513 65.2453 145.637 67.1327 145.675C68.2166 145.694 69.3005 145.504 70.3845 145.518C73.4841 145.551 76.5838 145.656 79.6835 145.699C82.3695 145.732 85.0556 145.751 87.7417 145.713C91.1694 145.666 94.5971 145.566 98.0248 145.471C98.234 145.466 98.4384 145.328 98.6476 145.247C102.689 145.247 106.73 145.247 110.771 145.247V145.238Z" fill="#E6CBA1"/>
<path d="M47.1559 153.324C47.6408 152.288 48.2921 152.369 48.9101 152.369C53.8592 152.369 58.8129 152.388 63.7619 152.355C72.1767 152.307 80.5915 152.202 89.011 152.164C97.3497 152.126 105.693 152.141 114.032 152.136C114.26 152.136 114.488 152.183 114.74 152.212C114.835 152.996 114.379 153.296 113.78 153.291C112.163 153.277 110.547 153.182 108.931 153.134C107.942 153.106 106.953 153.082 105.964 153.101C103.159 153.158 100.359 153.282 97.5541 153.305C93.5559 153.339 89.5529 153.305 85.5547 153.305C73.3605 153.305 61.171 153.32 48.9767 153.324C48.4395 153.324 47.907 153.324 47.1559 153.324Z" fill="#E6CBA1"/>
<path d="M38.917 130.286C39.8298 129.212 41.0136 129.05 42.0785 128.703C43.2575 128.318 43.3193 128.346 43.3003 127.096C43.286 126.312 43.1576 125.532 43.1244 124.748C43.1054 124.263 43.1672 123.778 43.1957 123.217C44.3795 123.412 44.9404 124.263 45.6963 124.776C46.2098 125.128 46.6899 125.589 47.056 126.098C47.888 127.262 48.9672 127.614 50.3411 127.429C51.0399 127.334 51.7673 127.381 52.4757 127.429C53.2791 127.486 53.5216 127.947 52.9749 128.484C51.8624 129.573 51.8576 130.709 52.4757 132.036C52.9083 132.963 53.2078 133.947 53.5406 134.917C53.6642 135.268 53.707 135.649 53.8116 136.129C52.5613 136.062 51.7911 135.406 50.9972 134.779C50.4742 134.36 49.937 133.956 49.3855 133.576C48.8483 133.205 48.3158 133.257 47.9213 133.79C47.4316 134.451 46.9799 135.14 46.5378 135.839C46.2906 136.233 46.1004 136.666 45.877 137.094C45.1734 137.027 44.7645 136.809 44.6695 136.124C44.5506 135.226 44.4032 134.332 44.2131 133.448C43.885 131.931 43.8327 131.318 41.9026 131.185C41.275 131.142 40.638 131.075 40.0342 130.918C39.6539 130.819 39.3211 130.529 38.917 130.291V130.286Z" fill="#FEB94B"/>
<path d="M96.4714 123.093C96.775 123.364 97.0715 123.631 97.3679 123.901L98.783 125.176C99.9844 126.239 101.424 126.999 103.307 126.645L103.31 126.644C103.673 126.575 104.104 126.632 104.614 126.736C104.59 126.755 104.565 126.773 104.541 126.792L104.539 126.793C103.992 127.226 103.562 127.738 103.409 128.388C103.254 129.044 103.415 129.693 103.737 130.323V130.325C104.374 131.566 105.039 132.81 105.692 134.042C105.268 133.766 104.845 133.48 104.418 133.185C103.901 132.829 103.371 132.462 102.831 132.111L102.829 132.109C102.227 131.72 101.567 131.507 100.885 131.656C100.297 131.784 99.8217 132.152 99.4294 132.633L99.2664 132.846C99.0142 133.192 98.7294 133.663 98.5388 133.944C98.4155 134.123 98.2946 134.291 98.1736 134.461C98.1722 134.449 98.1689 134.436 98.1677 134.422H98.1687C98.1264 133.912 98.0413 133.394 97.947 132.891L97.6697 131.453C97.4689 130.323 96.765 129.536 95.7429 129.148L95.7419 129.147L94.9724 128.87C94.7163 128.781 94.4607 128.695 94.2087 128.611C93.8149 128.479 93.4306 128.348 93.0505 128.214C93.3272 128.111 93.6073 128.004 93.8806 127.886L94.1794 127.753C94.9514 127.397 95.7116 126.927 96.3367 126.584L96.7664 126.348L96.7224 125.86C96.6367 124.902 96.5554 124.017 96.4714 123.093Z" stroke="#FEB94B" stroke-width="1.5"/>
<path d="M20.7421 128.679C21.9021 128.513 23.0526 128.289 24.2174 128.194C24.997 128.132 25.3298 127.766 25.4725 127.049C25.6579 126.121 25.8766 125.204 26.138 124.301C26.2141 124.039 26.4993 123.645 26.6705 123.654C26.9652 123.668 27.3598 123.882 27.5167 124.134C27.9874 124.904 28.4485 125.703 28.7575 126.545C29.309 128.023 30.4072 128.503 31.8572 128.603C32.7938 128.67 33.7303 128.86 34.6526 129.055C35.4466 129.221 35.5892 129.678 35.0805 130.324C34.7667 130.723 34.4292 131.104 34.0679 131.46C33.5021 132.026 33.3643 132.673 33.6543 133.41C33.9443 134.142 34.2628 134.864 34.5148 135.611C34.6431 135.991 34.6384 136.414 34.6954 136.813C33.7921 137.094 33.3928 136.485 32.9174 136.124C32.2566 135.62 31.6718 135.026 31.0252 134.508C30.198 133.847 29.8557 133.837 29.0761 134.565C28.439 135.154 27.8923 135.839 27.2933 136.466C26.9034 136.875 26.6277 137.574 25.8956 137.351C25.2157 137.141 25.1539 136.485 25.1349 135.882C25.1111 135.259 25.1016 134.636 25.1111 134.013C25.1159 133.581 25.2015 133.148 25.1967 132.715C25.1825 131.546 24.921 131.213 23.8418 130.771C23.0051 130.429 22.1779 130.048 21.3649 129.64C21.0797 129.497 20.861 129.216 20.6138 128.998C20.6566 128.888 20.6993 128.784 20.7374 128.674L20.7421 128.679Z" fill="#FEB94B"/>
<path d="M79.5303 123.592L79.5322 123.594C80.4884 124.554 81.4738 125.58 82.5566 126.491H82.5576C83.124 126.966 83.9351 127.139 84.5322 127.166V127.165C85.526 127.215 86.5393 127.115 87.4473 127.051L87.4463 127.05C87.5224 127.044 87.5863 127.046 87.6406 127.046C87.4529 127.324 87.2692 127.597 87.0801 127.866L86.7373 128.339C86.3755 128.821 86.1512 129.35 86.1074 129.921C86.0638 130.491 86.2051 131.042 86.4775 131.564C86.8613 132.301 87.2698 133.063 87.667 133.808C86.9975 133.403 86.3341 132.996 85.6865 132.569C85.2856 132.303 84.8277 132.13 84.332 132.163C83.8277 132.197 83.3963 132.436 83.043 132.783C82.3288 133.483 81.6412 134.214 80.9688 134.915C80.903 134.983 80.8398 135.055 80.7764 135.125C80.7653 135.075 80.7542 135.016 80.7441 134.946L80.6797 134.472C80.5736 133.835 80.4899 133.187 80.4248 132.536V132.534L80.3906 132.283C80.2941 131.706 80.073 131.202 79.71 130.783C79.3009 130.311 78.7581 130 78.1494 129.791L78.1475 129.79C77.2603 129.487 76.4163 129.083 75.5029 128.667C75.566 128.655 75.6404 128.64 75.7305 128.627C76.6649 128.496 77.5828 128.263 78.4551 128.018V128.017C78.911 127.889 79.2839 127.619 79.5059 127.212C79.7169 126.824 79.7478 126.392 79.7002 126.002V125.999L79.3887 123.452C79.4309 123.492 79.4778 123.538 79.5303 123.592Z" stroke="#FEB94B" stroke-width="1.5"/>
<path d="M62.2691 122.684C63.1534 122.665 63.4719 123.226 63.7952 123.678C64.418 124.543 64.9932 125.442 65.5304 126.359C65.9203 127.025 66.3767 127.434 67.2134 127.434C68.2355 127.434 69.2529 127.581 70.275 127.638C70.874 127.671 71.3542 127.838 71.5349 128.503C70.9311 129.316 70.3463 130.134 69.7236 130.923C69.367 131.38 69.3052 131.788 69.5572 132.335C70.0754 133.476 70.5127 134.65 71.0785 136.053C70.5317 135.877 70.1181 135.82 69.7901 135.625C68.9486 135.116 68.1167 134.584 67.3275 133.994C66.4908 133.371 65.7539 133.367 64.8554 133.928C63.9663 134.489 63.3103 135.249 62.5924 135.977C62.3737 136.2 62.0172 136.286 61.7224 136.433C61.594 136.129 61.3706 135.825 61.3611 135.511C61.3278 134.208 61.3088 132.896 61.3801 131.598C61.4277 130.671 61.0996 130.086 60.2249 129.792C59.5545 129.563 58.8937 129.311 58.2234 129.088C57.7337 128.922 57.2488 128.77 57.0016 128.18C57.6529 127.31 58.6322 127.343 59.5403 127.196C60.0395 127.115 60.5577 127.072 61.0378 126.915C62.2596 126.511 62.3737 126.221 62.2549 124.866C62.1931 124.153 62.2596 123.431 62.2739 122.68L62.2691 122.684Z" fill="#FEB94B"/>
</svg>
