<svg width="264" height="240" viewBox="0 0 264 240" fill="none" xmlns="http://www.w3.org/2000/svg">
<g clip-path="url(#clip0_45_185)">
<path d="M51.548 168.423C49.4578 165.378 52.0898 154.903 52.2361 154.103C52.2963 153.561 54.6616 141.218 54.7821 140.573C54.8939 140.238 61.4825 126.399 65.7918 120.697C70.2559 114.788 76.6983 108.862 83.0031 105.172C95.0364 98.1279 108.145 93.7414 122.569 93.9908C125.262 94.0338 133.106 95.6164 133.751 93.9908C133.906 93.6124 131.429 87.9702 131.42 87.9702C130.388 85.2007 128.616 82.3968 129.545 79.3951C130.603 75.9547 134.715 72.1875 136.968 69.4438C141.965 63.363 140.589 59.4753 140.469 52.156C140.34 44.6216 142.387 36.1325 143.815 28.7271C145.32 20.9174 153.061 -9.67603 163.856 5.40138C167.795 10.9146 170.617 18.707 173.094 24.9857C174.358 28.1766 176.173 33.2511 177.618 36.3647C179.631 40.7081 184.301 36.9151 188.8 37.2248C195.337 37.672 198.881 38.6439 205.254 40.1749C207.147 40.6307 212.153 42.2649 213.744 41.5252C215.757 40.5791 218.225 35.0573 219.61 33.1651C223.386 28.0218 228.048 23.2483 232.581 18.7586C235.385 15.9805 244.003 8.61812 248.39 10.5877C252.828 12.5745 254.11 26.422 254.876 30.5161C256.467 38.9966 254.549 59.5786 253.31 68.1795C252.123 76.4019 250.446 73.3658 254.17 81.0808C255.959 84.7964 260.131 88.7443 260.991 92.6749C261.86 96.6743 259.262 98.5407 256.733 101.706C256.484 102.024 256.226 102.342 255.977 102.652C251.917 108.028 248.321 112.156 242.988 116.345C242.524 116.723 232.357 123.733 231.755 124.877C231.755 124.877 230.645 125.883 230.74 126.21C231.136 127.689 233.794 162.54 233.493 163.159C233.019 164.123 232.615 165.12 233.888 165.851C234.086 166.101 234.275 166.342 234.473 166.591L235.634 167.993C236.4 168.81 237.165 169.627 237.939 170.444L238.757 171.322L238.765 171.33C239.445 172.079 240.124 172.827 240.804 173.575C240.941 173.73 241.079 173.876 241.217 174.031C241.939 175.166 242.67 176.302 243.393 177.437C243.711 177.841 244.029 178.245 244.339 178.65C245.294 180.267 246.24 181.884 247.195 183.501L247.513 184.154C248.416 185.797 249.328 187.44 250.231 189.074C250.325 189.298 250.42 189.521 250.515 189.745C251.555 192.093 252.51 194.484 253.654 196.78C254.549 198.569 258.264 207.979 258.471 208.366C260.862 215.1 262.023 225.034 261.911 225.568C261.481 226.256 259.228 226.247 259.013 226.239C258.497 225.98 257.981 225.731 257.456 225.473C255.83 224.854 254.196 224.234 252.57 223.615C252.192 223.503 251.822 223.4 251.444 223.288C250.635 223.065 249.818 222.833 249.009 222.609C248.244 222.385 247.487 222.17 246.721 221.947L244.795 221.568C244.476 221.448 244.167 221.327 243.849 221.207C243.453 221.173 243.057 221.13 242.662 221.095C242.016 220.915 241.371 220.743 240.735 220.562C240.202 220.519 239.66 220.476 239.126 220.433C238.077 220.226 237.028 220.011 235.978 219.805C234.189 219.908 232.409 220.003 230.62 220.106C229.871 220.209 229.123 220.321 228.375 220.424C219.791 222.299 211.568 225.671 203.431 228.999C199.414 230.642 195.242 232.225 191.045 233.154C186.409 234.186 181.747 235.089 177.033 235.708C158.196 238.194 140.288 237.299 121.468 234.857C112.729 233.721 104.911 230.943 96.6449 228.045C88.8004 225.292 80.1217 222.463 74.2211 216.279C61.3105 202.749 52.907 188.575 51.5566 168.389L51.548 168.423Z" fill="#FEA619"/>
<path d="M251.59 75.0688C250.291 76.9696 247.487 77.7437 245.672 77.1158C243.393 76.3245 241.698 76.2729 240.589 73.7271C239.806 71.9381 241.036 67.8268 239.789 66.5023C238.541 65.1863 235.402 66.1669 233.776 64.3951C231.712 62.133 229.656 58.8131 230.086 56.1468C231.187 49.2316 238.335 30.4128 239.548 26.9037C240.511 24.1084 242.386 17.7265 244.709 15.7225C250.721 10.5361 252.14 19.9111 253.697 24.2804C256.346 31.7374 257.611 50.1261 251.59 75.0688Z" fill="#FE6D2E"/>
<path d="M140.95 56.0694C142.396 45.3182 143.247 34.2575 145.716 23.6869C146.92 18.5436 148.227 12.7208 151.496 8.4547C154.661 4.32626 156.751 7.48279 157.826 11.4306C160.407 20.8916 160.407 26.9123 162.024 42.1789C159.547 46.6944 158.084 49.3607 154.558 52.5172C150.584 56.078 145.26 62.09 140.615 64.7477C140.073 62.4685 141.08 56.078 140.933 56.0694H140.95Z" fill="#FE6D2E"/>
<path d="M151.814 237.626C143.29 235.631 134.448 235.966 125.795 234.599C116.824 233.179 108.764 231.838 100.197 228.793C92.568 226.084 84.2935 223.856 77.5844 219.151C72.2171 215.384 65.6199 207.704 63.2717 201.614C68.0369 202.483 71.7183 205.072 76.7415 205.605C81.2572 206.087 85.0848 206.035 89.4973 204.745C98.9674 201.967 106.029 196.393 114.14 190.966C131.446 179.381 149.681 170.814 170.582 168.638C175.769 168.096 178.513 167.812 183.089 170.186C187.966 172.724 192.06 173.351 197.505 172.982C208.325 172.242 219.214 171.967 230.018 171.029C236.082 170.505 238.292 170.126 241.724 175.476C244.52 179.837 247.126 184.318 249.56 188.885C251.839 193.168 254.102 197.486 256.166 201.881C258.118 206.035 259.159 212.632 261.912 216.124V217.844C259.925 220.579 261.438 224.673 257.852 225.353C254.446 226.006 247.719 221.783 244.219 220.992C233.828 218.627 225.468 219.547 215.43 222.858C210.768 224.398 206.14 226.11 201.564 227.907C197.333 229.584 193.557 231.958 189.101 232.956C179.055 235.226 168.707 235.338 158.687 237.618H158.257C156.536 236.689 154.816 236.792 153.096 237.618H151.806L151.814 237.626Z" fill="#FE7C01"/>
<path d="M222.277 129.126C216.015 130.149 209.848 127.861 203.732 126.915C197.41 125.943 190.968 126.072 184.594 125.702C189.11 118.194 197.9 113.111 204.704 107.916C211.576 102.669 218.423 97.0356 223.412 89.8882C228.47 82.6462 231.059 74.1227 230.396 65.281C230.121 61.5654 227.575 55.6824 231.059 52.7924C234 50.3498 236.985 52.4312 238.439 55.3125C239.385 57.1875 239.342 59.4066 240.4 61.3762C241.346 63.1221 242.713 64.7649 243.866 66.3733C246.902 70.5963 250.188 74.8452 252.811 79.3435C255.151 83.3429 257.138 87.7724 259.168 91.9352C261.619 96.9668 258.867 98.8762 255.607 102.996C249.818 110.315 231.824 125.453 231.016 125.625C230.345 126.167 231.841 127.878 229.484 129.134C228.1 129.874 223.851 129.126 222.259 129.126H222.277Z" fill="#FE7C01"/>
<path d="M169.722 17.7781C171.821 22.8957 173.842 28.0562 176.01 33.1393C177.102 35.711 179.063 37.3452 181.059 38.0935C183.218 38.8934 185.575 36.1927 187.94 37.2334C179.339 39.8137 174.814 41.8177 171.133 37.3108C167.082 32.3481 168.613 23.6611 169.077 17.8469C169.292 17.8211 169.507 17.7953 169.722 17.7781Z" fill="#FE7C01"/>
<path d="M260.191 227.305C253.749 226.462 230.826 220.613 230.155 220.089C228.899 219.108 229.553 218.79 229.312 217.233C228.641 212.821 229.269 209.493 226.353 205.588C221.425 198.991 211.929 195.8 204.162 194.329C198.614 193.28 199.569 192.867 195.887 188.816C193.161 185.806 189.617 183.655 185.987 181.901C181.729 179.845 177.128 177.54 172.672 175.975C167.735 174.237 163.065 175.751 158.179 175.029C162.17 169.507 171.004 165.765 177.119 163.108C183.347 160.398 189.041 158.687 196.421 157.104C197.014 156.975 197.281 156.287 196.919 155.797C193.737 151.497 185.97 143.592 173.317 140.436C173.317 140.436 156.115 137.855 123.429 154.197C124.599 149.819 136.512 137.795 140.383 134.105C152.674 122.374 156.115 121.514 154.394 118.933C154.102 118.65 137.484 99.4352 137.192 99.1514L130.293 81.5367L130.311 79.3692C130.887 79.0768 137.665 79.5929 140.443 80.2723C141.277 80.4702 154.609 87.1703 158.695 90.5504C160.484 92.0212 168.406 97.6634 169.877 100.011C174.177 87.9702 187.742 88.3744 192.051 88.9937C195.801 89.5355 205.925 92.0384 209.813 103.538C210.071 104.303 210.948 104.665 211.654 104.269C219.541 99.7878 245.397 95.1433 247.298 94.8595C247.728 94.8595 260.707 94.9455 260.871 96.5625C261.086 98.6181 254.179 105.138 252.949 106.471C247.624 112.268 232.959 124.533 232.675 124.533C230.714 124.877 230.258 126.433 230.095 127.534C230.095 127.534 236.116 151.617 232.675 165.378C232.675 165.378 240.133 172.835 240.417 173.119C240.417 173.119 262.367 197.219 260.2 227.305H260.191Z" fill="#FEEDD3"/>
<path d="M162.548 44.9656C159.555 48.4059 154.205 52.8956 150.954 56.1468C148.087 59.0137 146.653 58.1537 146.653 53.5665C147.952 39.805 151.805 31.3417 151.814 31.2041C154.687 29.2517 157.835 34.6445 157.835 34.6445C157.835 34.6445 159.719 32.2018 161.275 32.0642C161.413 32.7781 162.411 43.8217 162.548 44.9656Z" fill="#FEEDD3"/>
<path d="M261.051 227.305C257.878 227.486 249.156 223.168 245.818 222.342C241.191 221.19 236.572 219.908 231.781 220.33C231.781 220.33 222.053 222.007 217.408 223.194C212.084 224.544 194.451 233.248 190.529 234.194C181.635 236.336 173.326 237.635 163.873 237.411C163.804 237.23 178.444 228.389 185.377 223.237C188.705 220.768 191.931 218.068 194.675 214.937C197.814 211.35 197.419 212.692 190.58 210.722C181.798 208.323 172.896 206.319 164.131 203.893C158.635 202.38 159.573 202.371 164.398 197.993C167.211 195.447 171.614 192.041 173.558 189.581C170.866 188.162 156.545 184.249 151.375 182.899C150.808 182.752 150.61 182.047 151.006 181.617C152.898 179.604 157.233 175.011 158.583 173.842C160.132 172.509 162.316 170.35 163.873 169.67C166.454 168.81 169.782 168.956 171.614 168.81C180.379 168.114 185.919 169.18 194.64 170.264C207.267 172.844 210.587 173.085 216.496 175.089C217.116 175.295 217.64 174.59 217.253 174.065C215.43 171.545 213.434 169.094 211.662 166.54C211.181 165.851 211.86 164.94 212.66 165.189C217.993 166.832 223.231 168.535 228.392 170.745C233.828 173.076 240.959 175.768 244.932 180.31C248.889 184.834 251.125 191.921 253.775 197.296C256.828 203.506 264.294 227.107 261.06 227.296L261.051 227.305Z" fill="#FE9A94"/>
<path d="M231.772 163.108C228.057 161.087 214.329 152.744 211.043 150.576C206.089 147.308 204.248 139.429 199.664 135.103C194.563 130.287 187.2 130.14 181.54 126.021C176.225 122.15 170.651 115.201 170.505 108.337C174.169 113.773 179.786 118.925 188.129 119.914C194.133 120.628 203.061 116.714 204.282 115.493C210.303 109.472 209.314 106.626 210.303 105.172C212.196 102.394 226.844 98.1709 236.107 96.5711C238.628 96.1325 257.155 93.7242 259.305 95.0746C262.187 96.8807 255.985 102.308 254.437 104.2C249.104 110.737 231.824 123.939 230.938 126.408C230.405 127.896 237.269 163.684 231.772 163.099V163.108Z" fill="#FE9A94"/>
<path d="M230.947 52.7064C231.712 49.3263 233.673 38.9106 236.107 36.3647C237.699 37.9903 239.548 43.2454 239.548 43.2454C241.561 43.2884 244.932 37.9559 246.429 38.945C249.586 41.0264 250.377 52.1216 249.87 55.2867C249.594 57.0069 247.496 66.0895 245.569 66.4679C243.943 66.7861 240.253 62.8813 239.806 61.5138C236.107 50.1262 236.967 49.2661 230.947 52.7064Z" fill="#FE9A94"/>
<path d="M162.136 44.9656C159.555 48.406 155.005 53.3171 154.395 52.7064C153.534 51.8463 156.898 44.6818 157.293 43.4432C158.162 40.7167 159.874 37.1388 161.276 34.6445C163.005 37.4484 162.136 41.7059 162.136 44.9656Z" fill="#FE9A94"/>
<path d="M257.611 200.728C252.751 187.56 245.371 175.94 234.809 166.196C236.34 152.83 233.527 139.627 231.523 126.416C232.417 125.806 233.45 125.204 234.353 124.447C237.088 122.142 239.66 119.63 242.498 117.463C249.319 112.259 254.867 105.817 260.2 99.203C261.954 97.0269 263.124 94.4123 261.146 91.2041C258.342 86.6628 256.106 81.7689 253.68 76.9954C253.31 76.2729 252.82 75.2408 253.069 74.6387C254.824 70.3555 255.306 65.8314 255.968 61.3245C257.043 54.0138 257.714 46.66 257.069 39.3234C256.209 29.5183 255.177 19.7047 251.65 10.3641C250.781 8.05045 249.405 6.77751 247.074 7.27637C245.285 7.66341 243.358 8.21387 241.905 9.26318C236.099 13.4776 230.955 18.4576 226.345 23.9449C221.95 29.1743 217.7 34.5155 213.125 40.1405C202.562 37.4742 191.767 34.6015 180.5 36.9753C176.251 25.3555 171.081 14.3377 164.295 4.14563C163.262 2.58887 161.379 1.34174 159.615 0.584855C156.665 -0.670879 154.807 0.103203 153.027 2.71788C149.586 7.75802 146.774 13.1164 144.924 18.9564C142.542 26.465 140.71 34.094 139.824 41.9295C139.041 48.8446 138.903 56.1468 139.299 62.8211C139.084 63.1049 138.817 63.4404 138.568 63.7758C135.532 67.9042 132.444 71.9983 129.476 76.1697C127.954 78.3113 127.575 80.7024 128.582 83.2569C129.494 85.5877 130.276 87.9702 131.145 90.3268C131.42 91.0923 131.764 91.832 132.229 92.9329C131.197 92.8555 130.586 92.7867 129.967 92.7609C126.234 92.6405 122.501 92.434 118.768 92.4771C116.471 92.5029 114.183 92.6921 111.921 93.0275C107.534 93.6726 103.096 94.1972 98.8555 95.4014C88.6801 98.2827 80.0529 104.062 72.3977 111.193C65.8004 117.334 60.4934 124.464 57.2335 133.005C55.9863 136.264 54.2402 139.326 52.864 142.543C50.7567 147.471 50.533 152.812 49.6127 158.007C48.2537 165.705 49.2428 173.283 51.1695 180.679C53.2252 188.566 56.8636 195.851 61.1901 202.775C65.4048 209.518 70.5828 215.341 76.9908 220.072C82.229 223.942 87.8371 227.142 93.9871 229.3C98.5286 230.892 103.087 232.466 107.715 233.764C113.848 235.493 119.972 237.609 126.242 238.366C135.592 239.493 145.071 239.897 154.498 240C161.396 240.069 168.329 239.346 175.21 238.607C180.018 238.091 184.809 237.162 189.505 236.018C194.141 234.9 198.743 233.506 203.199 231.82C207.852 230.057 212.256 227.649 216.892 225.826C220.255 224.501 223.756 223.03 227.282 222.755C235.781 222.076 243.978 224.277 252.072 226.634C254.342 227.296 256.501 228.027 258.789 228.501C261.284 229.025 263.563 226.927 263.288 224.398C262.428 216.459 260.312 207.996 257.628 200.728H257.611ZM256.673 224.484C250.601 222.437 244.382 220.992 238.103 219.676C232.314 218.463 223.205 217.853 205.186 227.021C199.251 230.04 192.782 231.648 186.349 233.222C182.891 234.065 179.321 234.444 175.829 235.149C168.423 236.646 160.906 236.818 153.423 236.663C145.432 236.491 137.433 235.923 129.476 235.175C124.591 234.719 119.688 233.911 114.931 232.698C109.624 231.356 104.446 229.49 99.2769 227.658C92.6109 225.301 86.1599 222.506 80.3883 218.283C72.6041 212.589 66.4713 205.588 61.861 197.064C58.7215 191.267 55.9519 185.35 54.223 179.028C52.2619 171.864 52.3995 164.544 52.993 157.147C53.6983 148.349 57.2937 140.634 60.9063 132.85C63.0996 128.119 65.2327 123.26 68.9915 119.57C73.5159 115.132 78.152 110.728 83.1838 106.909C90.4691 101.388 98.8555 98.0849 107.973 96.9581C112.635 96.3819 123.447 94.8681 133.209 96.3303C133.648 96.3991 134.078 96.5195 134.336 96.8807C136.796 100.467 139.153 104.019 141.664 107.468C143.178 109.541 149.251 114.642 150.971 114.642C151.883 114.642 151.539 113.48 150.928 112.801C149.225 110.9 147.728 109.232 146.24 107.554C140.383 100.958 136.151 93.3715 132.693 85.3297C132.108 83.9621 131.498 82.5774 131.154 81.1324C130.999 80.4874 131.308 79.5757 131.713 78.9908C134.422 75.0516 137.252 71.1984 139.961 67.2592C140.529 66.4335 142.464 64.2574 142.361 63.8876C140.641 57.5745 143.694 37.414 144.752 32.9931C146.163 27.1101 147.9 21.2959 149.81 15.5505C151.074 11.7402 153.259 6.87212 156.381 3.44036C156.751 3.03612 157.345 2.9329 157.835 3.15653C162.402 5.18635 164.621 10.4157 166.703 14.6388C170.075 21.4765 173.094 28.4948 176.268 35.4358C176.827 36.6571 177.403 37.8784 177.962 39.0482C178.177 39.4954 178.625 39.7792 179.115 39.7792C184.731 39.7448 190.305 39.3836 195.793 39.8996C201.22 40.4157 206.57 41.8262 212.299 42.9702C212.824 43.0734 213.297 43.3744 213.606 43.8131L213.701 43.9507C213.899 44.2345 214.312 44.2431 214.535 43.9765C220.866 36.3045 226.784 28.9077 232.985 21.7431C235.583 18.7328 238.791 16.2557 241.724 13.5378C241.905 13.3744 243.109 12.1187 244.743 11.4048C246.747 10.5275 249.087 11.6456 249.689 13.7529C255.022 32.5803 255.762 52.3366 250.549 71.5768C250.386 72.1789 249.964 72.6949 249.371 72.9186C249.362 72.9186 249.354 72.9186 249.345 72.9272C248.605 73.1938 248.244 74.0281 248.614 74.7248C252.072 81.3733 255.435 87.8498 258.867 94.4553C259.09 94.8939 259.056 95.4186 258.763 95.8142C250.282 107.15 239.514 115.872 228.521 125.195C228.177 125.487 228.014 125.935 228.082 126.382C229.957 137.4 232.486 148.727 231.884 160.691C231.833 161.68 230.74 162.248 229.914 161.706C229.433 161.388 228.977 161.087 228.521 160.786C225.622 158.868 222.689 156.984 219.825 155.006C217.184 153.182 214.578 151.307 212.041 149.346C206.734 145.244 200.532 143.231 194.227 141.339C186.521 139.025 178.599 138.664 170.66 138.63C160.992 138.587 151.41 140.401 142.447 144.022C136.495 146.422 130.491 148.727 124.685 151.445C117.735 154.705 111.551 159.177 105.728 164.217C99.2081 169.859 92.198 174.891 83.5364 176.603C79.7518 177.351 75.7694 177.334 71.8902 177.213C70.2215 177.162 69.2066 177.153 68.5013 177.532C67.5895 178.022 67.7013 179.364 68.6389 179.794C70.9355 180.851 73.4815 180.8 75.9328 180.834C87.4157 181.006 96.9374 176.044 105.47 168.931C111.732 163.701 118.002 158.48 125.416 154.98C131.928 151.901 138.559 149.045 145.294 146.499C151.35 144.212 157.654 142.38 164.157 142.113C169.92 141.881 175.726 142.371 181.506 142.638C190.503 143.05 199.268 145.183 206.699 150.069C215.714 155.995 225.304 161.147 233.002 169.103C238.868 175.158 244.072 181.522 248.27 188.799C253.465 197.795 256.897 207.411 258.978 217.543C259.305 219.151 259.744 220.734 260.045 222.351C260.131 222.815 260.183 223.28 260.234 223.787C260.32 224.716 259.408 225.43 258.531 225.112C257.886 224.88 257.293 224.665 256.699 224.467L256.673 224.484Z" fill="black"/>
<path d="M174.874 114.943C182.039 120.439 189.867 122.675 198.915 119.2C203.44 117.463 206.768 114.796 209.177 110.797C209.607 110.083 210.08 107.658 209.452 106.901C209.22 106.806 208.704 108.372 208.592 108.621C205.676 115.424 199.414 118.349 192.903 119.097C185.23 119.974 178.263 117.17 173.361 110.986C170.187 106.987 168.398 102.351 171.606 97.4312C171.855 97.0527 173.326 93.9908 171.735 95.668C171.03 96.6571 170.324 97.6462 169.628 98.6095C165.671 95.4186 161.74 92.2362 157.801 89.0625C151.281 83.7987 144.082 80.2293 133.76 79.3693C132.745 79.2832 130.319 79.3693 130.319 80.2293C146.662 80.2293 158.738 90.1978 169.025 100.011C168.165 106.032 170.333 111.442 174.883 114.934L174.874 114.943Z" fill="black"/>
<path d="M234.525 51.8033C234.731 51.6055 235.067 51.5453 235.299 51.7173C235.875 52.1388 236.262 53.1365 236.451 54.1772C236.709 55.5705 237.157 56.9467 237.638 58.2884C237.871 58.9249 238.688 60.4644 239.548 60.4644C239.866 60.2838 239.548 59.6044 239.548 59.6044C238.576 56.8263 237.896 53.9191 236.882 51.1582C236.4 49.8509 235.402 49.7391 234.267 50.3498C233.923 50.539 232.977 51.2615 232.357 51.6399C232.151 51.7689 231.893 51.5797 231.953 51.3475C232.83 47.5545 234.465 41.9897 236.107 38.1021C236.968 38.9621 238.387 41.4564 238.688 42.4025C239.479 44.9312 239.505 44.8108 241.535 43.1938C242.791 42.1875 244.124 41.2844 245.62 40.2179C245.836 40.0631 246.154 40.1147 246.291 40.3469C246.79 41.1468 248.003 43.469 248.149 44.1227C248.665 46.4105 250.73 54.4438 246.291 64.4553C245.965 65.1949 245.569 67.3452 246.051 66.9925C246.274 67.0269 247.977 64.2574 248.149 63.9048C249.87 60.4644 251.573 51.7345 249.706 44.1657C249.293 42.4885 248.605 40.7081 247.513 39.418C246.257 37.9214 246.111 38.059 243.849 39.8222C243.049 40.4501 241.268 41.5424 240.408 42.4025C239.281 40.3211 237.871 37.9644 236.821 36.0292C238.55 31.5482 240.425 26.766 242.232 21.9581C242.576 21.0378 242.696 20.0315 242.92 19.0596C242.988 17.4599 241.191 20.1863 240.873 20.9346C236.494 31.1955 232.753 41.68 230.293 52.586C230.198 53.0074 230.138 53.6095 230.267 54.203C230.396 54.7964 231.101 54.9857 231.531 54.59C232.624 53.5751 233.501 52.758 234.516 51.8119L234.525 51.8033Z" fill="black"/>
<path d="M147.341 56.4048C147.29 47.9243 148.546 39.7792 152.631 32.2018C152.915 31.6686 153.646 31.5912 154.059 32.0298C155.332 33.3973 156.485 34.6445 157.654 35.9088C158.334 34.8767 160.08 32.8813 160.415 32.9329C161.276 41.5338 161.258 41.4908 161.508 43.254C161.697 44.5613 161.284 45.3698 160.2 46.1353C159.426 46.6858 157.835 49.2746 159.005 49.008C160.123 48.2167 161.233 47.4168 162.385 46.5998C163.073 46.1095 163.443 45.301 163.374 44.4581C163.134 41.6628 162.944 38.8417 162.557 36.0464C161.585 28.9765 160.51 21.9237 159.392 14.871C159.254 13.9937 157.835 10.5619 157.439 12.6003C158.497 18.8102 158.687 19.1628 160.407 31.2041C158.962 32.0814 158.687 32.9243 157.826 33.7844C157.405 33.1909 156.313 31.9954 155.943 31.4879C154.033 28.8475 152.244 28.8905 150.808 31.746C147.204 38.9019 145.75 46.5826 145.57 54.5298C145.552 55.2437 146.636 57.8584 147.324 56.3962L147.341 56.4048Z" fill="black"/>
<path d="M211.164 104.312C212.024 105.172 216.6 102.815 217.185 102.592C224.066 100.011 227.902 98.7127 235.247 97.4312C255.031 93.9908 260.191 95.711 261.051 94.8509C261.017 94.6359 260.381 93.9908 255.891 93.9908C249.01 93.9908 241.647 95.2637 235.11 96.3217C227.205 97.6032 219.584 99.9943 212.29 103.349C211.654 103.641 210.974 104.123 211.164 104.312Z" fill="black"/>
<path d="M193.961 97.8096C195.113 96.0551 194.339 94.2661 192.24 93.9908C191.053 93.836 189.66 93.1307 187.08 93.1307C184.499 93.1307 184.233 93.3458 182.779 93.9908C180.439 95.0315 181.678 96.6399 183.639 98.2913C186.546 100.734 191.896 100.94 193.961 97.8096Z" fill="black"/>
<path d="M175.898 85.3899C178.478 85.3899 178.633 85.3469 179.338 84.5298C180.155 83.5751 180.697 80.6508 180.766 79.3607C180.844 77.8297 181.059 76.789 179.932 74.8194C179.055 73.2884 176.758 72.4885 174.427 74.6044C172.466 78.5178 173.326 79.7219 173.326 81.9581C173.326 82.8182 174.608 85.3985 175.906 85.3985L175.898 85.3899Z" fill="black"/>
<path d="M206.863 87.1101C208.583 86.25 209.443 84.5298 209.572 82.8612C209.701 81.1927 210.303 79.3693 209.538 77.7781C207.731 75.0688 203.482 76.2643 203.061 79.5241C202.846 81.2099 202.442 82.8268 202.562 84.5298C202.725 86.8091 204.97 88.0562 206.863 87.1101Z" fill="black"/>
<path d="M179.338 107.752C183.802 111.158 188.542 111.993 194.021 111.502C195.096 111.408 196.541 110.333 197.117 109.533C197.255 109.343 196.962 109.103 196.739 109.154C189.858 110.745 183.648 109.705 178.409 104.665C178.229 104.493 178.031 104.63 177.876 104.828C177.627 105.181 178.117 106.815 179.347 107.761L179.338 107.752Z" fill="black"/>
<path d="M180.431 90.0774C180.852 90.043 181.274 89.9828 181.695 89.8882C186.392 88.7959 190.959 88.5206 195.715 90.1118C197.186 90.6021 198.606 91.2385 200.386 92.219C200.67 92.3739 204.076 94.9885 201.702 92.2706C197.659 87.6433 184.585 86.2844 180.138 89.828C180.233 89.914 180.345 90.0774 180.431 90.0688V90.0774Z" fill="black"/>
<path d="M53.7585 37.6548C57.199 37.6548 60.6396 37.6548 64.0801 37.6548C77.5929 41.035 89.0929 44.0539 99.4575 54.1686C109.796 64.2661 114.45 76.6256 116.978 90.5505V100.872C113.607 114.418 110.527 125.986 100.378 136.342C90.3057 146.62 77.9455 151.221 64.0801 153.767H53.7585C40.2457 150.387 28.7457 147.368 18.3811 137.253C8.04224 127.156 3.38891 114.796 0.860107 100.872C0.860107 97.4312 0.860107 93.9908 0.860107 90.5505C4.24044 77.004 7.31113 65.4358 17.4607 55.0803C27.5329 44.8022 39.8931 40.2007 53.7585 37.6548Z" fill="#84D09A"/>
<path d="M17.7102 54.16C28.1437 43.2282 43.3853 36.7689 58.5409 36.3733C73.6105 35.9776 88.4048 42.7208 99.3887 52.758C104.601 57.5229 122.561 75.9289 118.69 102.592C118.26 105.172 114.863 151.307 62.3513 155.057C38.2675 156.778 22.3377 143.618 17.1425 138.079C6.41662 126.64 0.430068 115.493 0 97.4312C0.430068 79.3693 7.01871 65.3498 17.7102 54.1514V54.16ZM114.888 98.3343C116.548 72.0155 97.0664 48.1651 72.0278 41.5854C49.6557 35.711 24.7031 47.0556 12.8332 66.3819C0.713913 86.1124 1.49664 110.892 14.932 129.667C28.4791 148.598 56.1755 156.365 78.0918 148.65C98.7952 141.365 115.439 120.783 114.88 98.3343H114.888Z" fill="#354158"/>
<path d="M86.4437 65.6078C89.8842 69.0482 91.0884 70.3125 93.4796 72.7293C95.1912 74.4581 95.9052 75.9289 100.206 80.6594C82.143 97.4312 65.8004 114.633 47.7375 132.265C47.6601 132.265 26.1051 110.745 15.4824 100.011C15.4824 99.8652 21.7614 93.5608 24.7031 90.5935C26.8018 88.4776 30.5348 85.3899 30.5348 85.3899C30.5348 85.3899 37.8116 92.9243 40.2887 95.4702C41.6478 96.8721 47.7375 103.452 47.7375 103.452C47.7375 103.452 55.4874 95.6594 57.0872 94.1112C60.3557 90.9375 63.6156 87.7551 66.8498 84.5556C73.3094 78.1651 80.1131 72.1273 86.4437 65.6078Z" fill="#E5FEEC"/>
</g>
<defs>
<clipPath id="clip0_45_185">
<rect width="263.296" height="240" fill="white"/>
</clipPath>
</defs>
</svg>
