<svg width="24" height="24" viewBox="0 0 24 24" fill="none" xmlns="http://www.w3.org/2000/svg">
<g filter="url(#filter0_d_773_14374)">
<path d="M19.7573 12.6702L14.0576 1.2724C13.8664 0.890072 13.5726 0.568517 13.209 0.343779C12.8454 0.119041 12.4263 0 11.9989 0C11.5714 0 11.1523 0.119041 10.7887 0.343779C10.4251 0.568517 10.1313 0.890072 9.94015 1.2724L4.24044 12.6748C4.06617 13.0254 3.98427 13.4148 4.00249 13.8059C4.02072 14.1971 4.13847 14.5771 4.3446 14.91C4.55073 15.243 4.83842 15.5178 5.18045 15.7085C5.52247 15.8993 5.90752 15.9996 6.29915 16H17.6974C18.0898 16.0002 18.4757 15.9001 18.8184 15.7092C19.1612 15.5183 19.4495 15.2429 19.6558 14.9093C19.8622 14.5757 19.9799 14.1948 19.9976 13.8029C20.0154 13.411 19.9327 13.0211 19.7573 12.6702V12.6702ZM10.8481 4.49406C10.8481 4.18891 10.9693 3.89625 11.1851 3.68047C11.401 3.46469 11.6937 3.34347 11.9989 3.34347C12.3041 3.34347 12.5968 3.46469 12.8126 3.68047C13.0284 3.89625 13.1496 4.18891 13.1496 4.49406V9.09644C13.1496 9.40159 13.0284 9.69425 12.8126 9.91003C12.5968 10.1258 12.3041 10.247 11.9989 10.247C11.6937 10.247 11.401 10.1258 11.1851 9.91003C10.9693 9.69425 10.8481 9.40159 10.8481 9.09644V4.49406ZM11.9989 13.9865C11.7144 13.9865 11.4362 13.9021 11.1997 13.7441C10.9631 13.586 10.7788 13.3614 10.6699 13.0986C10.561 12.8358 10.5325 12.5466 10.588 12.2676C10.6435 11.9886 10.7805 11.7324 10.9817 11.5312C11.1829 11.3301 11.4392 11.1931 11.7182 11.1376C11.9973 11.0821 12.2865 11.1106 12.5493 11.2195C12.8122 11.3283 13.0368 11.5127 13.1949 11.7492C13.3529 11.9857 13.4373 12.2638 13.4373 12.5482C13.4373 12.9297 13.2858 13.2955 13.016 13.5652C12.7462 13.8349 12.3804 13.9865 11.9989 13.9865V13.9865Z" fill="#FF4F5E"/>
</g>
<defs>
<filter id="filter0_d_773_14374" x="0" y="0" width="24" height="24" filterUnits="userSpaceOnUse" color-interpolation-filters="sRGB">
<feFlood flood-opacity="0" result="BackgroundImageFix"/>
<feColorMatrix in="SourceAlpha" type="matrix" values="0 0 0 0 0 0 0 0 0 0 0 0 0 0 0 0 0 0 127 0" result="hardAlpha"/>
<feOffset dy="4"/>
<feGaussianBlur stdDeviation="2"/>
<feComposite in2="hardAlpha" operator="out"/>
<feColorMatrix type="matrix" values="0 0 0 0 0 0 0 0 0 0 0 0 0 0 0 0 0 0 0.25 0"/>
<feBlend mode="normal" in2="BackgroundImageFix" result="effect1_dropShadow_773_14374"/>
<feBlend mode="normal" in="SourceGraphic" in2="effect1_dropShadow_773_14374" result="shape"/>
</filter>
</defs>
</svg>
